ISO-10303-21;
HEADER;
/* Generated by software containing ST-Developer
 * from STEP Tools, Inc. (www.steptools.com) 
 */
/* OPTION: strings as raw bytes, not using required /X/ escapes */

FILE_DESCRIPTION(
/* description */ ('Unknown'),
/* implementation_level */ '2;1');

FILE_NAME(
/* name */ 'Kindle Paperwhite 10th Gen (2018)',
/* time_stamp */ '2024-11-03T13:17:46-06:00',
/* author */ ('Unknown'),
/* organization */ ('Unknown'),
/* preprocessor_version */ 'ST-DEVELOPER v18.1',
/* originating_system */ 'Solid Edge',
/* authorisation */ 'Unknown');

FILE_SCHEMA (('AUTOMOTIVE_DESIGN {1 0 10303 214 3 1 1}'));
ENDSEC;

DATA;
#10=PROPERTY_DEFINITION_REPRESENTATION(#14,#12);
#11=PROPERTY_DEFINITION_REPRESENTATION(#15,#13);
#12=REPRESENTATION('',(#16),#1640);
#13=REPRESENTATION('',(#17),#1640);
#14=PROPERTY_DEFINITION('pmi validation property','',#1645);
#15=PROPERTY_DEFINITION('pmi validation property','',#1645);
#16=VALUE_REPRESENTATION_ITEM('number of annotations',COUNT_MEASURE(0.));
#17=VALUE_REPRESENTATION_ITEM('number of views',COUNT_MEASURE(0.));
#18=SHAPE_REPRESENTATION_RELATIONSHIP('','',#814,#19);
#19=ADVANCED_BREP_SHAPE_REPRESENTATION('',(#812),#1640);
#20=(
BOUNDED_SURFACE()
B_SPLINE_SURFACE(3,3,((#1419,#1420,#1421,#1422,#1423,#1424,#1425),(#1426,
#1427,#1428,#1429,#1430,#1431,#1432),(#1433,#1434,#1435,#1436,#1437,#1438,
#1439),(#1440,#1441,#1442,#1443,#1444,#1445,#1446)),.UNSPECIFIED.,.F.,.F.,
 .F.)
B_SPLINE_SURFACE_WITH_KNOTS((4,4),(4,3,4),(0.,0.953182778249075),(-0.00631774171136771,
0.,1.),.PIECEWISE_BEZIER_KNOTS.)
GEOMETRIC_REPRESENTATION_ITEM()
RATIONAL_B_SPLINE_SURFACE(((1.,1.,1.,1.,0.804737854124367,0.804737854124367,
1.),(1.,1.,1.,1.,0.804737854124367,0.804737854124367,1.),(1.,1.,1.,1.,0.804737854124367,
0.804737854124367,1.),(1.,1.,1.,1.,0.804737854124367,0.804737854124367,
1.)))
REPRESENTATION_ITEM('')
SURFACE()
);
#21=(
BOUNDED_SURFACE()
B_SPLINE_SURFACE(3,3,((#1459,#1460,#1461,#1462),(#1463,#1464,#1465,#1466),
(#1467,#1468,#1469,#1470),(#1471,#1472,#1473,#1474)),
 .SURF_OF_REVOLUTION.,.F.,.F.,.F.)
B_SPLINE_SURFACE_WITH_KNOTS((4,4),(4,4),(0.,0.952766929410116),(0.,1.),
 .PIECEWISE_BEZIER_KNOTS.)
GEOMETRIC_REPRESENTATION_ITEM()
RATIONAL_B_SPLINE_SURFACE(((1.,0.804737854124361,0.804737854124361,1.),
(1.,0.804737854124361,0.804737854124361,1.),(1.,0.804737854124361,0.804737854124361,
1.),(1.,0.804737854124361,0.804737854124361,1.)))
REPRESENTATION_ITEM('')
SURFACE()
);
#22=(
BOUNDED_SURFACE()
B_SPLINE_SURFACE(3,3,((#1480,#1481,#1482,#1483),(#1484,#1485,#1486,#1487),
(#1488,#1489,#1490,#1491),(#1492,#1493,#1494,#1495)),
 .SURF_OF_REVOLUTION.,.F.,.F.,.F.)
B_SPLINE_SURFACE_WITH_KNOTS((4,4),(4,4),(0.0472330705907126,1.),(0.,1.),
 .PIECEWISE_BEZIER_KNOTS.)
GEOMETRIC_REPRESENTATION_ITEM()
RATIONAL_B_SPLINE_SURFACE(((1.,0.804737854124361,0.804737854124361,1.),
(1.,0.804737854124361,0.804737854124361,1.),(1.,0.804737854124361,0.804737854124361,
1.),(1.,0.804737854124361,0.804737854124361,1.)))
REPRESENTATION_ITEM('')
SURFACE()
);
#23=(
BOUNDED_SURFACE()
B_SPLINE_SURFACE(3,3,((#1501,#1502,#1503,#1504,#1505,#1506,#1507),(#1508,
#1509,#1510,#1511,#1512,#1513,#1514),(#1515,#1516,#1517,#1518,#1519,#1520,
#1521),(#1522,#1523,#1524,#1525,#1526,#1527,#1528)),.UNSPECIFIED.,.F.,.F.,
 .F.)
B_SPLINE_SURFACE_WITH_KNOTS((4,4),(4,3,4),(0.,0.952770432592443),(-0.00631793937019062,
0.,1.),.PIECEWISE_BEZIER_KNOTS.)
GEOMETRIC_REPRESENTATION_ITEM()
RATIONAL_B_SPLINE_SURFACE(((1.,1.,1.,1.,0.804737854124367,0.804737854124367,
1.),(1.,1.,1.,1.,0.804737854124367,0.804737854124367,1.),(1.,1.,1.,1.,0.804737854124367,
0.804737854124367,1.),(1.,1.,1.,1.,0.804737854124367,0.804737854124367,
1.)))
REPRESENTATION_ITEM('')
SURFACE()
);
#24=(
BOUNDED_SURFACE()
B_SPLINE_SURFACE(3,2,((#1535,#1536,#1537),(#1538,#1539,#1540),(#1541,#1542,
#1543),(#1544,#1545,#1546),(#1547,#1548,#1549),(#1550,#1551,#1552)),
 .UNSPECIFIED.,.F.,.F.,.F.)
B_SPLINE_SURFACE_WITH_KNOTS((4,1,1,4),(3,3),(0.000442193576556058,0.00189543719200489,
0.00334868080745373,0.0062551680383514),(0.,1.),.UNSPECIFIED.)
GEOMETRIC_REPRESENTATION_ITEM()
RATIONAL_B_SPLINE_SURFACE(((1.,0.993046428589576,1.),(1.,0.995804555831266,
1.),(1.,0.998136082876766,1.),(1.,0.99996396056315,1.),(1.,1.0000000000156,
1.),(1.,1.,1.)))
REPRESENTATION_ITEM('')
SURFACE()
);
#25=(
BOUNDED_SURFACE()
B_SPLINE_SURFACE(3,2,((#1553,#1554,#1555),(#1556,#1557,#1558),(#1559,#1560,
#1561),(#1562,#1563,#1564),(#1565,#1566,#1567),(#1568,#1569,#1570)),
 .UNSPECIFIED.,.F.,.F.,.F.)
B_SPLINE_SURFACE_WITH_KNOTS((4,1,1,4),(3,3),(0.000218025993847505,0.00167125848783072,
0.00312449098181393,0.00603095596978036),(0.,1.),.UNSPECIFIED.)
GEOMETRIC_REPRESENTATION_ITEM()
RATIONAL_B_SPLINE_SURFACE(((1.,0.993046486596488,1.),(1.,0.995804718455254,
1.),(1.,0.998135727103714,1.),(1.,0.999964159542048,1.),(1.,1.0000000000156,
1.),(1.,1.,1.)))
REPRESENTATION_ITEM('')
SURFACE()
);
#26=(
BOUNDED_SURFACE()
B_SPLINE_SURFACE(3,2,((#1621,#1622,#1623),(#1624,#1625,#1626),(#1627,#1628,
#1629),(#1630,#1631,#1632),(#1633,#1634,#1635),(#1636,#1637,#1638)),
 .UNSPECIFIED.,.F.,.F.,.F.)
B_SPLINE_SURFACE_WITH_KNOTS((4,1,1,4),(3,3),(-4.77735132493919E-5,0.00285936878971332,
0.00431293994119468,0.00576651109267603),(0.,1.),.UNSPECIFIED.)
GEOMETRIC_REPRESENTATION_ITEM()
RATIONAL_B_SPLINE_SURFACE(((1.,1.,1.),(1.,1.0000000000156,1.),(1.,0.999964498119967,
1.),(1.,0.998134145163172,1.),(1.,0.995806281439788,1.),(1.,0.993046375435843,
1.)))
REPRESENTATION_ITEM('')
SURFACE()
);
#27=TOROIDAL_SURFACE('',#836,4.,3.);
#28=TOROIDAL_SURFACE('',#838,4.,3.);
#29=TOROIDAL_SURFACE('',#840,4.,3.);
#30=TOROIDAL_SURFACE('',#842,4.,3.);
#31=PLANE('',#831);
#32=PLANE('',#833);
#33=PLANE('',#835);
#34=PLANE('',#846);
#35=PLANE('',#849);
#36=PLANE('',#852);
#37=PLANE('',#855);
#38=PLANE('',#856);
#39=PLANE('',#857);
#40=PLANE('',#858);
#41=PLANE('',#859);
#42=PLANE('',#860);
#43=PLANE('',#861);
#44=PLANE('',#862);
#45=PLANE('',#863);
#46=PLANE('',#864);
#47=PLANE('',#867);
#48=PLANE('',#870);
#49=CIRCLE('',#817,3.);
#50=CIRCLE('',#818,3.);
#51=CIRCLE('',#820,3.);
#52=CIRCLE('',#821,3.);
#53=CIRCLE('',#823,3.);
#54=CIRCLE('',#824,3.);
#55=CIRCLE('',#826,3.);
#56=CIRCLE('',#827,3.);
#57=CIRCLE('',#828,3.);
#58=CIRCLE('',#829,3.);
#59=CIRCLE('',#837,6.58869145011868);
#60=CIRCLE('',#839,6.58869145011869);
#61=CIRCLE('',#841,6.58869145011869);
#62=CIRCLE('',#843,6.58869145011868);
#63=CIRCLE('',#845,3.99999999999997);
#64=CIRCLE('',#848,3.99999999999998);
#65=CIRCLE('',#851,4.);
#66=CIRCLE('',#854,3.99999999999999);
#67=CIRCLE('',#866,1.);
#68=CIRCLE('',#869,0.999999999999999);
#69=CYLINDRICAL_SURFACE('',#816,3.);
#70=CYLINDRICAL_SURFACE('',#819,3.);
#71=CYLINDRICAL_SURFACE('',#822,3.);
#72=CYLINDRICAL_SURFACE('',#825,3.);
#73=CYLINDRICAL_SURFACE('',#830,1.);
#74=CYLINDRICAL_SURFACE('',#832,3.6);
#75=CYLINDRICAL_SURFACE('',#834,0.999999999999999);
#76=CYLINDRICAL_SURFACE('',#844,3.99999999999997);
#77=CYLINDRICAL_SURFACE('',#847,3.99999999999998);
#78=CYLINDRICAL_SURFACE('',#850,4.);
#79=CYLINDRICAL_SURFACE('',#853,3.99999999999999);
#80=CYLINDRICAL_SURFACE('',#865,1.);
#81=CYLINDRICAL_SURFACE('',#868,0.999999999999999);
#82=B_SPLINE_CURVE_WITH_KNOTS('',3,(#1054,#1055,#1056,#1057,#1058),
 .UNSPECIFIED.,.F.,.F.,(4,1,4),(-5.06406753548083E-5,0.00320020365986259,
0.00645104799507998),.UNSPECIFIED.);
#83=B_SPLINE_CURVE_WITH_KNOTS('',3,(#1060,#1061,#1062,#1063),
 .UNSPECIFIED.,.F.,.F.,(4,4),(0.0721487254182126,1.),.UNSPECIFIED.);
#84=B_SPLINE_CURVE_WITH_KNOTS('',3,(#1067,#1068,#1069,#1070,#1071),
 .UNSPECIFIED.,.F.,.F.,(4,1,4),(-0.00688323041215677,-0.00375849723399491,
-0.000633764055833048),.UNSPECIFIED.);
#85=B_SPLINE_CURVE_WITH_KNOTS('',3,(#1073,#1074,#1075,#1076,#1077),
 .UNSPECIFIED.,.F.,.F.,(4,1,4),(0.,0.00325563715560516,0.00651127431121032),
 .UNSPECIFIED.);
#86=B_SPLINE_CURVE_WITH_KNOTS('',3,(#1095,#1096,#1097,#1098,#1099),
 .UNSPECIFIED.,.F.,.F.,(4,1,4),(-5.06406753549455E-5,0.00320020366222864,
0.00645104799981222),.UNSPECIFIED.);
#87=B_SPLINE_CURVE_WITH_KNOTS('',3,(#1101,#1102,#1103,#1104),
 .UNSPECIFIED.,.F.,.F.,(4,4),(0.0721482628206858,1.),.UNSPECIFIED.);
#88=B_SPLINE_CURVE_WITH_KNOTS('',3,(#1108,#1109,#1110,#1111),
 .UNSPECIFIED.,.F.,.F.,(4,4),(0.,0.927853229603707),.UNSPECIFIED.);
#89=B_SPLINE_CURVE_WITH_KNOTS('',3,(#1113,#1114,#1115,#1116,#1117),
 .UNSPECIFIED.,.F.,.F.,(4,1,4),(0.,0.00324900621344973,0.00649801242689946),
 .UNSPECIFIED.);
#90=B_SPLINE_CURVE_WITH_KNOTS('',3,(#1147,#1148,#1149,#1150,#1151),
 .UNSPECIFIED.,.F.,.F.,(4,1,4),(0.,0.000790472084834626,0.00158094416966925),
 .UNSPECIFIED.);
#91=B_SPLINE_CURVE_WITH_KNOTS('',3,(#1155,#1156,#1157,#1158,#1159),
 .UNSPECIFIED.,.F.,.F.,(4,1,4),(0.,0.000790340139028507,0.00158068027805701),
 .UNSPECIFIED.);
#92=B_SPLINE_CURVE_WITH_KNOTS('',3,(#1165,#1166,#1167,#1168,#1169),
 .UNSPECIFIED.,.F.,.F.,(4,1,4),(4.67088590647017E-18,0.00108549078530961,
0.00217098157061922),.UNSPECIFIED.);
#93=B_SPLINE_CURVE_WITH_KNOTS('',3,(#1173,#1174,#1175,#1176,#1177),
 .UNSPECIFIED.,.F.,.F.,(4,1,4),(1.78811203067275E-18,0.00108537229105595,
0.0021707445821119),.UNSPECIFIED.);
#94=B_SPLINE_CURVE_WITH_KNOTS('',3,(#1186,#1187,#1188,#1189,#1190),
 .UNSPECIFIED.,.F.,.F.,(4,1,4),(-0.00688323041212755,-0.00375851551414791,
-0.000633800616168271),.UNSPECIFIED.);
#95=B_SPLINE_CURVE_WITH_KNOTS('',3,(#1192,#1193,#1194,#1195,#1196),
 .UNSPECIFIED.,.F.,.F.,(4,1,4),(0.,0.00325430064116349,0.00650860128232698),
 .UNSPECIFIED.);
#96=B_SPLINE_CURVE_WITH_KNOTS('',3,(#1198,#1199,#1200,#1201,#1202),
 .UNSPECIFIED.,.F.,.F.,(4,1,4),(-5.06406753499435E-5,0.00319955714525494,
0.00644975496585983),.UNSPECIFIED.);
#97=B_SPLINE_CURVE_WITH_KNOTS('',3,(#1204,#1205,#1206,#1207),
 .UNSPECIFIED.,.F.,.F.,(4,4),(0.0721482613740521,1.),.UNSPECIFIED.);
#98=B_SPLINE_CURVE_WITH_KNOTS('',3,(#1208,#1209,#1210,#1211),
 .UNSPECIFIED.,.F.,.F.,(4,4),(8.7168775853027E-18,0.00108049133081651),
 .UNSPECIFIED.);
#99=B_SPLINE_CURVE_WITH_KNOTS('',3,(#1215,#1216,#1217,#1218),
 .UNSPECIFIED.,.F.,.F.,(4,4),(0.,0.00108122770556419),.UNSPECIFIED.);
#100=B_SPLINE_CURVE_WITH_KNOTS('',3,(#1219,#1220,#1221,#1222),
 .UNSPECIFIED.,.F.,.F.,(4,4),(0.,1.),.UNSPECIFIED.);
#101=B_SPLINE_CURVE_WITH_KNOTS('',3,(#1226,#1227,#1228,#1229),
 .UNSPECIFIED.,.F.,.F.,(4,4),(0.,1.),.UNSPECIFIED.);
#102=B_SPLINE_CURVE_WITH_KNOTS('',3,(#1233,#1234,#1235,#1236,#1237,#1238,
#1239),.UNSPECIFIED.,.F.,.F.,(4,1,1,1,4),(0.00276192489086524,0.0034096435945457,
0.00405736229822617,0.00470508100190663,0.0053527997055871),
 .UNSPECIFIED.);
#103=B_SPLINE_CURVE_WITH_KNOTS('',3,(#1241,#1242,#1243,#1244),
 .UNSPECIFIED.,.F.,.F.,(4,4),(0.000376440387182869,0.000995332806117451),
 .UNSPECIFIED.);
#104=B_SPLINE_CURVE_WITH_KNOTS('',3,(#1252,#1253,#1254,#1255,#1256,#1257,
#1258),.UNSPECIFIED.,.F.,.F.,(4,1,1,1,4),(0.000313201818664985,0.000963072995811315,
0.00161294417295765,0.00226281535010398,0.00291268652725031),
 .UNSPECIFIED.);
#105=B_SPLINE_CURVE_WITH_KNOTS('',3,(#1269,#1270,#1271,#1272),
 .UNSPECIFIED.,.F.,.F.,(4,4),(0.000923316796469137,0.00154262231809433),
 .UNSPECIFIED.);
#106=B_SPLINE_CURVE_WITH_KNOTS('',3,(#1281,#1282,#1283,#1284,#1285),
 .UNSPECIFIED.,.F.,.F.,(4,1,4),(0.,0.5,1.),.UNSPECIFIED.);
#107=B_SPLINE_CURVE_WITH_KNOTS('',3,(#1288,#1289,#1290,#1291,#1292),
 .UNSPECIFIED.,.F.,.F.,(4,1,4),(0.,0.5,1.),.UNSPECIFIED.);
#108=B_SPLINE_CURVE_WITH_KNOTS('',3,(#1295,#1296,#1297,#1298,#1299),
 .UNSPECIFIED.,.F.,.F.,(4,1,4),(0.,0.5,1.),.UNSPECIFIED.);
#109=B_SPLINE_CURVE_WITH_KNOTS('',3,(#1302,#1303,#1304,#1305,#1306),
 .UNSPECIFIED.,.F.,.F.,(4,1,4),(0.,0.5,1.),.UNSPECIFIED.);
#110=B_SPLINE_CURVE_WITH_KNOTS('',3,(#1316,#1317,#1318,#1319),
 .UNSPECIFIED.,.F.,.F.,(4,4),(0.,0.927852965182052),.UNSPECIFIED.);
#111=B_SPLINE_CURVE_WITH_KNOTS('',3,(#1321,#1322,#1323,#1324,#1325),
 .UNSPECIFIED.,.F.,.F.,(4,1,4),(0.,0.00324718674578403,0.00649437349156805),
 .UNSPECIFIED.);
#112=B_SPLINE_CURVE_WITH_KNOTS('',3,(#1326,#1327,#1328,#1329,#1330),
 .UNSPECIFIED.,.F.,.F.,(4,1,4),(-5.06406753952226E-5,0.0031996190910918,
0.00644987885757883),.UNSPECIFIED.);
#113=B_SPLINE_CURVE_WITH_KNOTS('',3,(#1332,#1333,#1334,#1335),
 .UNSPECIFIED.,.F.,.F.,(4,4),(0.0721493949592738,1.),.UNSPECIFIED.);
#114=B_SPLINE_CURVE_WITH_KNOTS('',3,(#1447,#1448,#1449,#1450,#1451,#1452,
#1453,#1454,#1455,#1456,#1457,#1458),.UNSPECIFIED.,.F.,.F.,(4,1,1,1,1,1,
1,1,1,4),(0.,0.25,0.375,0.5,0.625,0.75,0.8125,0.875,0.9375,1.),
 .UNSPECIFIED.);
#115=B_SPLINE_CURVE_WITH_KNOTS('',3,(#1475,#1476,#1477,#1478,#1479),
 .UNSPECIFIED.,.F.,.F.,(4,1,4),(-2.60250521951314E-5,0.000764410849039748,
0.00155484675027463),.UNSPECIFIED.);
#116=B_SPLINE_CURVE_WITH_KNOTS('',3,(#1496,#1497,#1498,#1499,#1500),
 .UNSPECIFIED.,.F.,.F.,(4,1,4),(-2.60250521956705E-5,0.0007661831515116,
0.00155839135521887),.UNSPECIFIED.);
#117=B_SPLINE_CURVE_WITH_KNOTS('',3,(#1529,#1530,#1531,#1532,#1533,#1534),
 .UNSPECIFIED.,.F.,.F.,(4,1,1,4),(0.,0.25,0.5,1.),.UNSPECIFIED.);
#118=ORIENTED_EDGE('',*,*,#348,.F.);
#119=ORIENTED_EDGE('',*,*,#349,.T.);
#120=ORIENTED_EDGE('',*,*,#350,.F.);
#121=ORIENTED_EDGE('',*,*,#351,.T.);
#122=ORIENTED_EDGE('',*,*,#352,.F.);
#123=ORIENTED_EDGE('',*,*,#353,.T.);
#124=ORIENTED_EDGE('',*,*,#354,.T.);
#125=ORIENTED_EDGE('',*,*,#351,.F.);
#126=ORIENTED_EDGE('',*,*,#355,.F.);
#127=ORIENTED_EDGE('',*,*,#356,.F.);
#128=ORIENTED_EDGE('',*,*,#357,.T.);
#129=ORIENTED_EDGE('',*,*,#358,.T.);
#130=ORIENTED_EDGE('',*,*,#359,.F.);
#131=ORIENTED_EDGE('',*,*,#360,.F.);
#132=ORIENTED_EDGE('',*,*,#361,.T.);
#133=ORIENTED_EDGE('',*,*,#362,.T.);
#134=ORIENTED_EDGE('',*,*,#363,.F.);
#135=ORIENTED_EDGE('',*,*,#364,.T.);
#136=ORIENTED_EDGE('',*,*,#365,.F.);
#137=ORIENTED_EDGE('',*,*,#366,.F.);
#138=ORIENTED_EDGE('',*,*,#360,.T.);
#139=ORIENTED_EDGE('',*,*,#367,.T.);
#140=ORIENTED_EDGE('',*,*,#368,.F.);
#141=ORIENTED_EDGE('',*,*,#369,.F.);
#142=ORIENTED_EDGE('',*,*,#370,.T.);
#143=ORIENTED_EDGE('',*,*,#371,.F.);
#144=ORIENTED_EDGE('',*,*,#372,.F.);
#145=ORIENTED_EDGE('',*,*,#373,.T.);
#146=ORIENTED_EDGE('',*,*,#374,.T.);
#147=ORIENTED_EDGE('',*,*,#375,.T.);
#148=ORIENTED_EDGE('',*,*,#376,.T.);
#149=ORIENTED_EDGE('',*,*,#377,.T.);
#150=ORIENTED_EDGE('',*,*,#378,.T.);
#151=ORIENTED_EDGE('',*,*,#379,.T.);
#152=ORIENTED_EDGE('',*,*,#380,.T.);
#153=ORIENTED_EDGE('',*,*,#381,.T.);
#154=ORIENTED_EDGE('',*,*,#382,.T.);
#155=ORIENTED_EDGE('',*,*,#383,.T.);
#156=ORIENTED_EDGE('',*,*,#384,.T.);
#157=ORIENTED_EDGE('',*,*,#385,.T.);
#158=ORIENTED_EDGE('',*,*,#386,.T.);
#159=ORIENTED_EDGE('',*,*,#387,.T.);
#160=ORIENTED_EDGE('',*,*,#388,.T.);
#161=ORIENTED_EDGE('',*,*,#370,.F.);
#162=ORIENTED_EDGE('',*,*,#389,.F.);
#163=ORIENTED_EDGE('',*,*,#390,.F.);
#164=ORIENTED_EDGE('',*,*,#391,.F.);
#165=ORIENTED_EDGE('',*,*,#380,.F.);
#166=ORIENTED_EDGE('',*,*,#392,.F.);
#167=ORIENTED_EDGE('',*,*,#393,.F.);
#168=ORIENTED_EDGE('',*,*,#394,.F.);
#169=ORIENTED_EDGE('',*,*,#374,.F.);
#170=ORIENTED_EDGE('',*,*,#383,.F.);
#171=ORIENTED_EDGE('',*,*,#395,.T.);
#172=ORIENTED_EDGE('',*,*,#396,.T.);
#173=ORIENTED_EDGE('',*,*,#397,.T.);
#174=ORIENTED_EDGE('',*,*,#398,.F.);
#175=ORIENTED_EDGE('',*,*,#389,.T.);
#176=ORIENTED_EDGE('',*,*,#382,.F.);
#177=ORIENTED_EDGE('',*,*,#399,.T.);
#178=ORIENTED_EDGE('',*,*,#400,.T.);
#179=ORIENTED_EDGE('',*,*,#395,.F.);
#180=ORIENTED_EDGE('',*,*,#401,.F.);
#181=ORIENTED_EDGE('',*,*,#402,.T.);
#182=ORIENTED_EDGE('',*,*,#396,.F.);
#183=ORIENTED_EDGE('',*,*,#400,.F.);
#184=ORIENTED_EDGE('',*,*,#402,.F.);
#185=ORIENTED_EDGE('',*,*,#403,.F.);
#186=ORIENTED_EDGE('',*,*,#404,.F.);
#187=ORIENTED_EDGE('',*,*,#397,.F.);
#188=ORIENTED_EDGE('',*,*,#405,.F.);
#189=ORIENTED_EDGE('',*,*,#390,.T.);
#190=ORIENTED_EDGE('',*,*,#398,.T.);
#191=ORIENTED_EDGE('',*,*,#404,.T.);
#192=ORIENTED_EDGE('',*,*,#381,.F.);
#193=ORIENTED_EDGE('',*,*,#391,.T.);
#194=ORIENTED_EDGE('',*,*,#405,.T.);
#195=ORIENTED_EDGE('',*,*,#403,.T.);
#196=ORIENTED_EDGE('',*,*,#401,.T.);
#197=ORIENTED_EDGE('',*,*,#399,.F.);
#198=ORIENTED_EDGE('',*,*,#348,.T.);
#199=ORIENTED_EDGE('',*,*,#406,.T.);
#200=ORIENTED_EDGE('',*,*,#357,.F.);
#201=ORIENTED_EDGE('',*,*,#386,.F.);
#202=ORIENTED_EDGE('',*,*,#354,.F.);
#203=ORIENTED_EDGE('',*,*,#407,.F.);
#204=ORIENTED_EDGE('',*,*,#364,.F.);
#205=ORIENTED_EDGE('',*,*,#408,.F.);
#206=ORIENTED_EDGE('',*,*,#373,.F.);
#207=ORIENTED_EDGE('',*,*,#409,.F.);
#208=ORIENTED_EDGE('',*,*,#355,.T.);
#209=ORIENTED_EDGE('',*,*,#410,.F.);
#210=ORIENTED_EDGE('',*,*,#366,.T.);
#211=ORIENTED_EDGE('',*,*,#411,.F.);
#212=ORIENTED_EDGE('',*,*,#367,.F.);
#213=ORIENTED_EDGE('',*,*,#412,.F.);
#214=ORIENTED_EDGE('',*,*,#369,.T.);
#215=ORIENTED_EDGE('',*,*,#413,.F.);
#216=ORIENTED_EDGE('',*,*,#371,.T.);
#217=ORIENTED_EDGE('',*,*,#414,.F.);
#218=ORIENTED_EDGE('',*,*,#415,.T.);
#219=ORIENTED_EDGE('',*,*,#416,.T.);
#220=ORIENTED_EDGE('',*,*,#406,.F.);
#221=ORIENTED_EDGE('',*,*,#417,.T.);
#222=ORIENTED_EDGE('',*,*,#418,.F.);
#223=ORIENTED_EDGE('',*,*,#363,.T.);
#224=ORIENTED_EDGE('',*,*,#411,.T.);
#225=ORIENTED_EDGE('',*,*,#419,.F.);
#226=ORIENTED_EDGE('',*,*,#420,.F.);
#227=ORIENTED_EDGE('',*,*,#421,.T.);
#228=ORIENTED_EDGE('',*,*,#365,.T.);
#229=ORIENTED_EDGE('',*,*,#422,.F.);
#230=ORIENTED_EDGE('',*,*,#423,.F.);
#231=ORIENTED_EDGE('',*,*,#419,.T.);
#232=ORIENTED_EDGE('',*,*,#407,.T.);
#233=ORIENTED_EDGE('',*,*,#424,.F.);
#234=ORIENTED_EDGE('',*,*,#425,.F.);
#235=ORIENTED_EDGE('',*,*,#422,.T.);
#236=ORIENTED_EDGE('',*,*,#356,.T.);
#237=ORIENTED_EDGE('',*,*,#426,.F.);
#238=ORIENTED_EDGE('',*,*,#427,.F.);
#239=ORIENTED_EDGE('',*,*,#424,.T.);
#240=ORIENTED_EDGE('',*,*,#409,.T.);
#241=ORIENTED_EDGE('',*,*,#428,.F.);
#242=ORIENTED_EDGE('',*,*,#429,.F.);
#243=ORIENTED_EDGE('',*,*,#426,.T.);
#244=ORIENTED_EDGE('',*,*,#372,.T.);
#245=ORIENTED_EDGE('',*,*,#430,.F.);
#246=ORIENTED_EDGE('',*,*,#431,.F.);
#247=ORIENTED_EDGE('',*,*,#428,.T.);
#248=ORIENTED_EDGE('',*,*,#413,.T.);
#249=ORIENTED_EDGE('',*,*,#432,.F.);
#250=ORIENTED_EDGE('',*,*,#433,.F.);
#251=ORIENTED_EDGE('',*,*,#430,.T.);
#252=ORIENTED_EDGE('',*,*,#368,.T.);
#253=ORIENTED_EDGE('',*,*,#421,.F.);
#254=ORIENTED_EDGE('',*,*,#434,.F.);
#255=ORIENTED_EDGE('',*,*,#432,.T.);
#256=ORIENTED_EDGE('',*,*,#435,.F.);
#257=ORIENTED_EDGE('',*,*,#436,.F.);
#258=ORIENTED_EDGE('',*,*,#437,.F.);
#259=ORIENTED_EDGE('',*,*,#438,.F.);
#260=ORIENTED_EDGE('',*,*,#420,.T.);
#261=ORIENTED_EDGE('',*,*,#423,.T.);
#262=ORIENTED_EDGE('',*,*,#425,.T.);
#263=ORIENTED_EDGE('',*,*,#427,.T.);
#264=ORIENTED_EDGE('',*,*,#429,.T.);
#265=ORIENTED_EDGE('',*,*,#431,.T.);
#266=ORIENTED_EDGE('',*,*,#433,.T.);
#267=ORIENTED_EDGE('',*,*,#434,.T.);
#268=ORIENTED_EDGE('',*,*,#439,.F.);
#269=ORIENTED_EDGE('',*,*,#440,.F.);
#270=ORIENTED_EDGE('',*,*,#441,.F.);
#271=ORIENTED_EDGE('',*,*,#442,.F.);
#272=ORIENTED_EDGE('',*,*,#443,.T.);
#273=ORIENTED_EDGE('',*,*,#437,.T.);
#274=ORIENTED_EDGE('',*,*,#444,.F.);
#275=ORIENTED_EDGE('',*,*,#440,.T.);
#276=ORIENTED_EDGE('',*,*,#444,.T.);
#277=ORIENTED_EDGE('',*,*,#436,.T.);
#278=ORIENTED_EDGE('',*,*,#445,.F.);
#279=ORIENTED_EDGE('',*,*,#441,.T.);
#280=ORIENTED_EDGE('',*,*,#445,.T.);
#281=ORIENTED_EDGE('',*,*,#435,.T.);
#282=ORIENTED_EDGE('',*,*,#446,.F.);
#283=ORIENTED_EDGE('',*,*,#442,.T.);
#284=ORIENTED_EDGE('',*,*,#446,.T.);
#285=ORIENTED_EDGE('',*,*,#438,.T.);
#286=ORIENTED_EDGE('',*,*,#443,.F.);
#287=ORIENTED_EDGE('',*,*,#439,.T.);
#288=ORIENTED_EDGE('',*,*,#393,.T.);
#289=ORIENTED_EDGE('',*,*,#447,.F.);
#290=ORIENTED_EDGE('',*,*,#448,.T.);
#291=ORIENTED_EDGE('',*,*,#449,.T.);
#292=ORIENTED_EDGE('',*,*,#450,.F.);
#293=ORIENTED_EDGE('',*,*,#451,.T.);
#294=ORIENTED_EDGE('',*,*,#447,.T.);
#295=ORIENTED_EDGE('',*,*,#392,.T.);
#296=ORIENTED_EDGE('',*,*,#379,.F.);
#297=ORIENTED_EDGE('',*,*,#394,.T.);
#298=ORIENTED_EDGE('',*,*,#449,.F.);
#299=ORIENTED_EDGE('',*,*,#452,.T.);
#300=ORIENTED_EDGE('',*,*,#453,.T.);
#301=ORIENTED_EDGE('',*,*,#375,.F.);
#302=ORIENTED_EDGE('',*,*,#453,.F.);
#303=ORIENTED_EDGE('',*,*,#454,.T.);
#304=ORIENTED_EDGE('',*,*,#455,.T.);
#305=ORIENTED_EDGE('',*,*,#376,.F.);
#306=ORIENTED_EDGE('',*,*,#377,.F.);
#307=ORIENTED_EDGE('',*,*,#455,.F.);
#308=ORIENTED_EDGE('',*,*,#456,.T.);
#309=ORIENTED_EDGE('',*,*,#457,.T.);
#310=ORIENTED_EDGE('',*,*,#457,.F.);
#311=ORIENTED_EDGE('',*,*,#458,.T.);
#312=ORIENTED_EDGE('',*,*,#450,.T.);
#313=ORIENTED_EDGE('',*,*,#378,.F.);
#314=ORIENTED_EDGE('',*,*,#451,.F.);
#315=ORIENTED_EDGE('',*,*,#458,.F.);
#316=ORIENTED_EDGE('',*,*,#456,.F.);
#317=ORIENTED_EDGE('',*,*,#454,.F.);
#318=ORIENTED_EDGE('',*,*,#452,.F.);
#319=ORIENTED_EDGE('',*,*,#448,.F.);
#320=ORIENTED_EDGE('',*,*,#350,.T.);
#321=ORIENTED_EDGE('',*,*,#459,.T.);
#322=ORIENTED_EDGE('',*,*,#384,.F.);
#323=ORIENTED_EDGE('',*,*,#410,.T.);
#324=ORIENTED_EDGE('',*,*,#388,.F.);
#325=ORIENTED_EDGE('',*,*,#460,.T.);
#326=ORIENTED_EDGE('',*,*,#361,.F.);
#327=ORIENTED_EDGE('',*,*,#414,.T.);
#328=ORIENTED_EDGE('',*,*,#359,.T.);
#329=ORIENTED_EDGE('',*,*,#461,.T.);
#330=ORIENTED_EDGE('',*,*,#415,.F.);
#331=ORIENTED_EDGE('',*,*,#412,.T.);
#332=ORIENTED_EDGE('',*,*,#418,.T.);
#333=ORIENTED_EDGE('',*,*,#462,.T.);
#334=ORIENTED_EDGE('',*,*,#352,.T.);
#335=ORIENTED_EDGE('',*,*,#408,.T.);
#336=ORIENTED_EDGE('',*,*,#462,.F.);
#337=ORIENTED_EDGE('',*,*,#417,.F.);
#338=ORIENTED_EDGE('',*,*,#353,.F.);
#339=ORIENTED_EDGE('',*,*,#460,.F.);
#340=ORIENTED_EDGE('',*,*,#387,.F.);
#341=ORIENTED_EDGE('',*,*,#362,.F.);
#342=ORIENTED_EDGE('',*,*,#459,.F.);
#343=ORIENTED_EDGE('',*,*,#349,.F.);
#344=ORIENTED_EDGE('',*,*,#385,.F.);
#345=ORIENTED_EDGE('',*,*,#461,.F.);
#346=ORIENTED_EDGE('',*,*,#358,.F.);
#347=ORIENTED_EDGE('',*,*,#416,.F.);
#348=EDGE_CURVE('',#463,#464,#533,.T.);
#349=EDGE_CURVE('',#463,#465,#82,.T.);
#350=EDGE_CURVE('',#466,#465,#83,.F.);
#351=EDGE_CURVE('',#466,#467,#534,.T.);
#352=EDGE_CURVE('',#468,#467,#84,.F.);
#353=EDGE_CURVE('',#468,#464,#85,.T.);
#354=EDGE_CURVE('',#469,#467,#49,.T.);
#355=EDGE_CURVE('',#470,#466,#50,.T.);
#356=EDGE_CURVE('',#469,#470,#535,.T.);
#357=EDGE_CURVE('',#471,#472,#536,.T.);
#358=EDGE_CURVE('',#472,#473,#86,.T.);
#359=EDGE_CURVE('',#474,#473,#87,.F.);
#360=EDGE_CURVE('',#475,#474,#537,.T.);
#361=EDGE_CURVE('',#475,#476,#88,.T.);
#362=EDGE_CURVE('',#476,#471,#89,.T.);
#363=EDGE_CURVE('',#477,#478,#538,.T.);
#364=EDGE_CURVE('',#477,#479,#51,.T.);
#365=EDGE_CURVE('',#480,#479,#539,.T.);
#366=EDGE_CURVE('',#478,#480,#52,.T.);
#367=EDGE_CURVE('',#474,#481,#53,.T.);
#368=EDGE_CURVE('',#482,#481,#540,.T.);
#369=EDGE_CURVE('',#475,#482,#54,.T.);
#370=EDGE_CURVE('',#483,#484,#541,.T.);
#371=EDGE_CURVE('',#485,#484,#55,.T.);
#372=EDGE_CURVE('',#486,#485,#542,.T.);
#373=EDGE_CURVE('',#486,#487,#56,.T.);
#374=EDGE_CURVE('',#487,#488,#543,.T.);
#375=EDGE_CURVE('',#488,#489,#57,.F.);
#376=EDGE_CURVE('',#489,#490,#90,.T.);
#377=EDGE_CURVE('',#490,#491,#544,.T.);
#378=EDGE_CURVE('',#491,#492,#91,.T.);
#379=EDGE_CURVE('',#492,#493,#58,.F.);
#380=EDGE_CURVE('',#493,#494,#545,.T.);
#381=EDGE_CURVE('',#494,#495,#92,.T.);
#382=EDGE_CURVE('',#495,#496,#546,.T.);
#383=EDGE_CURVE('',#496,#483,#93,.T.);
#384=EDGE_CURVE('',#487,#497,#94,.T.);
#385=EDGE_CURVE('',#497,#463,#95,.T.);
#386=EDGE_CURVE('',#463,#471,#547,.T.);
#387=EDGE_CURVE('',#471,#498,#96,.T.);
#388=EDGE_CURVE('',#498,#484,#97,.T.);
#389=EDGE_CURVE('',#499,#483,#98,.T.);
#390=EDGE_CURVE('',#500,#499,#548,.T.);
#391=EDGE_CURVE('',#494,#500,#99,.T.);
#392=EDGE_CURVE('',#501,#493,#100,.T.);
#393=EDGE_CURVE('',#502,#501,#549,.T.);
#394=EDGE_CURVE('',#488,#502,#101,.F.);
#395=EDGE_CURVE('',#496,#503,#550,.T.);
#396=EDGE_CURVE('',#503,#504,#102,.T.);
#397=EDGE_CURVE('',#504,#505,#103,.T.);
#398=EDGE_CURVE('',#499,#505,#551,.T.);
#399=EDGE_CURVE('',#495,#506,#552,.T.);
#400=EDGE_CURVE('',#506,#503,#553,.T.);
#401=EDGE_CURVE('',#507,#506,#104,.T.);
#402=EDGE_CURVE('',#507,#504,#554,.T.);
#403=EDGE_CURVE('',#508,#507,#105,.T.);
#404=EDGE_CURVE('',#505,#508,#555,.F.);
#405=EDGE_CURVE('',#500,#508,#556,.T.);
#406=EDGE_CURVE('',#464,#472,#557,.T.);
#407=EDGE_CURVE('',#479,#469,#106,.F.);
#408=EDGE_CURVE('',#467,#477,#59,.T.);
#409=EDGE_CURVE('',#470,#486,#107,.F.);
#410=EDGE_CURVE('',#487,#466,#60,.T.);
#411=EDGE_CURVE('',#481,#480,#108,.F.);
#412=EDGE_CURVE('',#478,#474,#61,.T.);
#413=EDGE_CURVE('',#485,#482,#109,.F.);
#414=EDGE_CURVE('',#475,#484,#62,.T.);
#415=EDGE_CURVE('',#478,#509,#110,.T.);
#416=EDGE_CURVE('',#509,#472,#111,.T.);
#417=EDGE_CURVE('',#464,#510,#112,.T.);
#418=EDGE_CURVE('',#477,#510,#113,.F.);
#419=EDGE_CURVE('',#511,#480,#558,.T.);
#420=EDGE_CURVE('',#512,#511,#63,.T.);
#421=EDGE_CURVE('',#512,#481,#559,.T.);
#422=EDGE_CURVE('',#513,#479,#560,.T.);
#423=EDGE_CURVE('',#511,#513,#561,.T.);
#424=EDGE_CURVE('',#514,#469,#562,.T.);
#425=EDGE_CURVE('',#513,#514,#64,.T.);
#426=EDGE_CURVE('',#515,#470,#563,.T.);
#427=EDGE_CURVE('',#514,#515,#564,.T.);
#428=EDGE_CURVE('',#516,#486,#565,.T.);
#429=EDGE_CURVE('',#515,#516,#65,.T.);
#430=EDGE_CURVE('',#517,#485,#566,.T.);
#431=EDGE_CURVE('',#516,#517,#567,.T.);
#432=EDGE_CURVE('',#518,#482,#568,.T.);
#433=EDGE_CURVE('',#517,#518,#66,.T.);
#434=EDGE_CURVE('',#518,#512,#569,.T.);
#435=EDGE_CURVE('',#519,#520,#570,.T.);
#436=EDGE_CURVE('',#521,#519,#571,.T.);
#437=EDGE_CURVE('',#522,#521,#572,.T.);
#438=EDGE_CURVE('',#520,#522,#573,.T.);
#439=EDGE_CURVE('',#523,#524,#574,.T.);
#440=EDGE_CURVE('',#525,#523,#575,.T.);
#441=EDGE_CURVE('',#526,#525,#576,.T.);
#442=EDGE_CURVE('',#524,#526,#577,.T.);
#443=EDGE_CURVE('',#523,#522,#578,.T.);
#444=EDGE_CURVE('',#525,#521,#579,.T.);
#445=EDGE_CURVE('',#526,#519,#580,.T.);
#446=EDGE_CURVE('',#524,#520,#581,.T.);
#447=EDGE_CURVE('',#527,#501,#582,.T.);
#448=EDGE_CURVE('',#527,#528,#583,.T.);
#449=EDGE_CURVE('',#528,#502,#584,.T.);
#450=EDGE_CURVE('',#529,#492,#585,.T.);
#451=EDGE_CURVE('',#529,#527,#586,.T.);
#452=EDGE_CURVE('',#528,#530,#587,.T.);
#453=EDGE_CURVE('',#530,#489,#588,.T.);
#454=EDGE_CURVE('',#530,#531,#67,.T.);
#455=EDGE_CURVE('',#531,#490,#589,.T.);
#456=EDGE_CURVE('',#531,#532,#590,.T.);
#457=EDGE_CURVE('',#532,#491,#591,.T.);
#458=EDGE_CURVE('',#532,#529,#68,.T.);
#459=EDGE_CURVE('',#465,#497,#114,.T.);
#460=EDGE_CURVE('',#498,#476,#115,.T.);
#461=EDGE_CURVE('',#473,#509,#116,.T.);
#462=EDGE_CURVE('',#510,#468,#117,.T.);
#463=VERTEX_POINT('',#1052);
#464=VERTEX_POINT('',#1053);
#465=VERTEX_POINT('',#1059);
#466=VERTEX_POINT('',#1064);
#467=VERTEX_POINT('',#1066);
#468=VERTEX_POINT('',#1072);
#469=VERTEX_POINT('',#1080);
#470=VERTEX_POINT('',#1082);
#471=VERTEX_POINT('',#1093);
#472=VERTEX_POINT('',#1094);
#473=VERTEX_POINT('',#1100);
#474=VERTEX_POINT('',#1105);
#475=VERTEX_POINT('',#1107);
#476=VERTEX_POINT('',#1112);
#477=VERTEX_POINT('',#1120);
#478=VERTEX_POINT('',#1121);
#479=VERTEX_POINT('',#1123);
#480=VERTEX_POINT('',#1125);
#481=VERTEX_POINT('',#1129);
#482=VERTEX_POINT('',#1131);
#483=VERTEX_POINT('',#1135);
#484=VERTEX_POINT('',#1136);
#485=VERTEX_POINT('',#1138);
#486=VERTEX_POINT('',#1140);
#487=VERTEX_POINT('',#1142);
#488=VERTEX_POINT('',#1144);
#489=VERTEX_POINT('',#1146);
#490=VERTEX_POINT('',#1152);
#491=VERTEX_POINT('',#1154);
#492=VERTEX_POINT('',#1160);
#493=VERTEX_POINT('',#1162);
#494=VERTEX_POINT('',#1164);
#495=VERTEX_POINT('',#1170);
#496=VERTEX_POINT('',#1172);
#497=VERTEX_POINT('',#1191);
#498=VERTEX_POINT('',#1203);
#499=VERTEX_POINT('',#1212);
#500=VERTEX_POINT('',#1214);
#501=VERTEX_POINT('',#1223);
#502=VERTEX_POINT('',#1225);
#503=VERTEX_POINT('',#1232);
#504=VERTEX_POINT('',#1240);
#505=VERTEX_POINT('',#1245);
#506=VERTEX_POINT('',#1249);
#507=VERTEX_POINT('',#1259);
#508=VERTEX_POINT('',#1273);
#509=VERTEX_POINT('',#1320);
#510=VERTEX_POINT('',#1331);
#511=VERTEX_POINT('',#1338);
#512=VERTEX_POINT('',#1340);
#513=VERTEX_POINT('',#1344);
#514=VERTEX_POINT('',#1348);
#515=VERTEX_POINT('',#1352);
#516=VERTEX_POINT('',#1356);
#517=VERTEX_POINT('',#1360);
#518=VERTEX_POINT('',#1364);
#519=VERTEX_POINT('',#1370);
#520=VERTEX_POINT('',#1371);
#521=VERTEX_POINT('',#1373);
#522=VERTEX_POINT('',#1375);
#523=VERTEX_POINT('',#1379);
#524=VERTEX_POINT('',#1380);
#525=VERTEX_POINT('',#1382);
#526=VERTEX_POINT('',#1384);
#527=VERTEX_POINT('',#1396);
#528=VERTEX_POINT('',#1398);
#529=VERTEX_POINT('',#1402);
#530=VERTEX_POINT('',#1406);
#531=VERTEX_POINT('',#1410);
#532=VERTEX_POINT('',#1414);
#533=LINE('',#1051,#592);
#534=LINE('',#1065,#593);
#535=LINE('',#1083,#594);
#536=LINE('',#1092,#595);
#537=LINE('',#1106,#596);
#538=LINE('',#1119,#597);
#539=LINE('',#1124,#598);
#540=LINE('',#1130,#599);
#541=LINE('',#1134,#600);
#542=LINE('',#1139,#601);
#543=LINE('',#1143,#602);
#544=LINE('',#1153,#603);
#545=LINE('',#1163,#604);
#546=LINE('',#1171,#605);
#547=LINE('',#1197,#606);
#548=LINE('',#1213,#607);
#549=LINE('',#1224,#608);
#550=LINE('',#1231,#609);
#551=LINE('',#1246,#610);
#552=LINE('',#1248,#611);
#553=LINE('',#1250,#612);
#554=LINE('',#1260,#613);
#555=LINE('',#1274,#614);
#556=LINE('',#1276,#615);
#557=LINE('',#1279,#616);
#558=LINE('',#1337,#617);
#559=LINE('',#1341,#618);
#560=LINE('',#1343,#619);
#561=LINE('',#1345,#620);
#562=LINE('',#1347,#621);
#563=LINE('',#1351,#622);
#564=LINE('',#1353,#623);
#565=LINE('',#1355,#624);
#566=LINE('',#1359,#625);
#567=LINE('',#1361,#626);
#568=LINE('',#1363,#627);
#569=LINE('',#1367,#628);
#570=LINE('',#1369,#629);
#571=LINE('',#1372,#630);
#572=LINE('',#1374,#631);
#573=LINE('',#1376,#632);
#574=LINE('',#1378,#633);
#575=LINE('',#1381,#634);
#576=LINE('',#1383,#635);
#577=LINE('',#1385,#636);
#578=LINE('',#1387,#637);
#579=LINE('',#1388,#638);
#580=LINE('',#1390,#639);
#581=LINE('',#1392,#640);
#582=LINE('',#1395,#641);
#583=LINE('',#1397,#642);
#584=LINE('',#1399,#643);
#585=LINE('',#1401,#644);
#586=LINE('',#1403,#645);
#587=LINE('',#1405,#646);
#588=LINE('',#1407,#647);
#589=LINE('',#1411,#648);
#590=LINE('',#1413,#649);
#591=LINE('',#1415,#650);
#592=VECTOR('',#873,1000.);
#593=VECTOR('',#874,1000.);
#594=VECTOR('',#881,1000.);
#595=VECTOR('',#882,1000.);
#596=VECTOR('',#883,1000.);
#597=VECTOR('',#886,1000.);
#598=VECTOR('',#889,1000.);
#599=VECTOR('',#896,1000.);
#600=VECTOR('',#901,1000.);
#601=VECTOR('',#904,1000.);
#602=VECTOR('',#907,1000.);
#603=VECTOR('',#910,1000.);
#604=VECTOR('',#913,1000.);
#605=VECTOR('',#914,1000.);
#606=VECTOR('',#915,1000.);
#607=VECTOR('',#916,1000.);
#608=VECTOR('',#917,1000.);
#609=VECTOR('',#920,1000.);
#610=VECTOR('',#921,1000.);
#611=VECTOR('',#924,1000.);
#612=VECTOR('',#925,1000.);
#613=VECTOR('',#928,1000.);
#614=VECTOR('',#929,1000.);
#615=VECTOR('',#932,1000.);
#616=VECTOR('',#937,1000.);
#617=VECTOR('',#956,1000.);
#618=VECTOR('',#959,1000.);
#619=VECTOR('',#962,1000.);
#620=VECTOR('',#963,1000.);
#621=VECTOR('',#966,1000.);
#622=VECTOR('',#971,1000.);
#623=VECTOR('',#972,1000.);
#624=VECTOR('',#975,1000.);
#625=VECTOR('',#980,1000.);
#626=VECTOR('',#981,1000.);
#627=VECTOR('',#984,1000.);
#628=VECTOR('',#989,1000.);
#629=VECTOR('',#992,1000.);
#630=VECTOR('',#993,1000.);
#631=VECTOR('',#994,1000.);
#632=VECTOR('',#995,1000.);
#633=VECTOR('',#998,1000.);
#634=VECTOR('',#999,1000.);
#635=VECTOR('',#1000,1000.);
#636=VECTOR('',#1001,1000.);
#637=VECTOR('',#1004,1000.);
#638=VECTOR('',#1005,1000.);
#639=VECTOR('',#1008,1000.);
#640=VECTOR('',#1011,1000.);
#641=VECTOR('',#1016,1000.);
#642=VECTOR('',#1017,1000.);
#643=VECTOR('',#1018,1000.);
#644=VECTOR('',#1021,1000.);
#645=VECTOR('',#1022,1000.);
#646=VECTOR('',#1025,1000.);
#647=VECTOR('',#1026,1000.);
#648=VECTOR('',#1031,1000.);
#649=VECTOR('',#1034,1000.);
#650=VECTOR('',#1035,1000.);
#651=EDGE_LOOP('',(#118,#119,#120,#121,#122,#123));
#652=EDGE_LOOP('',(#124,#125,#126,#127));
#653=EDGE_LOOP('',(#128,#129,#130,#131,#132,#133));
#654=EDGE_LOOP('',(#134,#135,#136,#137));
#655=EDGE_LOOP('',(#138,#139,#140,#141));
#656=EDGE_LOOP('',(#142,#143,#144,#145,#146,#147,#148,#149,#150,#151,#152,
#153,#154,#155));
#657=EDGE_LOOP('',(#156,#157,#158,#159,#160,#161,#162,#163,#164,#165,#166,
#167,#168,#169));
#658=EDGE_LOOP('',(#170,#171,#172,#173,#174,#175));
#659=EDGE_LOOP('',(#176,#177,#178,#179));
#660=EDGE_LOOP('',(#180,#181,#182,#183));
#661=EDGE_LOOP('',(#184,#185,#186,#187));
#662=EDGE_LOOP('',(#188,#189,#190,#191));
#663=EDGE_LOOP('',(#192,#193,#194,#195,#196,#197));
#664=EDGE_LOOP('',(#198,#199,#200,#201));
#665=EDGE_LOOP('',(#202,#203,#204,#205));
#666=EDGE_LOOP('',(#206,#207,#208,#209));
#667=EDGE_LOOP('',(#210,#211,#212,#213));
#668=EDGE_LOOP('',(#214,#215,#216,#217));
#669=EDGE_LOOP('',(#218,#219,#220,#221,#222,#223));
#670=EDGE_LOOP('',(#224,#225,#226,#227));
#671=EDGE_LOOP('',(#228,#229,#230,#231));
#672=EDGE_LOOP('',(#232,#233,#234,#235));
#673=EDGE_LOOP('',(#236,#237,#238,#239));
#674=EDGE_LOOP('',(#240,#241,#242,#243));
#675=EDGE_LOOP('',(#244,#245,#246,#247));
#676=EDGE_LOOP('',(#248,#249,#250,#251));
#677=EDGE_LOOP('',(#252,#253,#254,#255));
#678=EDGE_LOOP('',(#256,#257,#258,#259));
#679=EDGE_LOOP('',(#260,#261,#262,#263,#264,#265,#266,#267));
#680=EDGE_LOOP('',(#268,#269,#270,#271));
#681=EDGE_LOOP('',(#272,#273,#274,#275));
#682=EDGE_LOOP('',(#276,#277,#278,#279));
#683=EDGE_LOOP('',(#280,#281,#282,#283));
#684=EDGE_LOOP('',(#284,#285,#286,#287));
#685=EDGE_LOOP('',(#288,#289,#290,#291));
#686=EDGE_LOOP('',(#292,#293,#294,#295,#296));
#687=EDGE_LOOP('',(#297,#298,#299,#300,#301));
#688=EDGE_LOOP('',(#302,#303,#304,#305));
#689=EDGE_LOOP('',(#306,#307,#308,#309));
#690=EDGE_LOOP('',(#310,#311,#312,#313));
#691=EDGE_LOOP('',(#314,#315,#316,#317,#318,#319));
#692=EDGE_LOOP('',(#320,#321,#322,#323));
#693=EDGE_LOOP('',(#324,#325,#326,#327));
#694=EDGE_LOOP('',(#328,#329,#330,#331));
#695=EDGE_LOOP('',(#332,#333,#334,#335));
#696=EDGE_LOOP('',(#336,#337,#338));
#697=EDGE_LOOP('',(#339,#340,#341));
#698=EDGE_LOOP('',(#342,#343,#344));
#699=EDGE_LOOP('',(#345,#346,#347));
#700=FACE_BOUND('',#651,.T.);
#701=FACE_BOUND('',#652,.T.);
#702=FACE_BOUND('',#653,.T.);
#703=FACE_BOUND('',#654,.T.);
#704=FACE_BOUND('',#655,.T.);
#705=FACE_BOUND('',#656,.T.);
#706=FACE_BOUND('',#657,.T.);
#707=FACE_BOUND('',#658,.T.);
#708=FACE_BOUND('',#659,.T.);
#709=FACE_BOUND('',#660,.T.);
#710=FACE_BOUND('',#661,.T.);
#711=FACE_BOUND('',#662,.T.);
#712=FACE_BOUND('',#663,.T.);
#713=FACE_BOUND('',#664,.T.);
#714=FACE_BOUND('',#665,.T.);
#715=FACE_BOUND('',#666,.T.);
#716=FACE_BOUND('',#667,.T.);
#717=FACE_BOUND('',#668,.T.);
#718=FACE_BOUND('',#669,.T.);
#719=FACE_BOUND('',#670,.T.);
#720=FACE_BOUND('',#671,.T.);
#721=FACE_BOUND('',#672,.T.);
#722=FACE_BOUND('',#673,.T.);
#723=FACE_BOUND('',#674,.T.);
#724=FACE_BOUND('',#675,.T.);
#725=FACE_BOUND('',#676,.T.);
#726=FACE_BOUND('',#677,.T.);
#727=FACE_BOUND('',#678,.T.);
#728=FACE_BOUND('',#679,.T.);
#729=FACE_BOUND('',#680,.T.);
#730=FACE_BOUND('',#681,.T.);
#731=FACE_BOUND('',#682,.T.);
#732=FACE_BOUND('',#683,.T.);
#733=FACE_BOUND('',#684,.T.);
#734=FACE_BOUND('',#685,.T.);
#735=FACE_BOUND('',#686,.T.);
#736=FACE_BOUND('',#687,.T.);
#737=FACE_BOUND('',#688,.T.);
#738=FACE_BOUND('',#689,.T.);
#739=FACE_BOUND('',#690,.T.);
#740=FACE_BOUND('',#691,.T.);
#741=FACE_BOUND('',#692,.T.);
#742=FACE_BOUND('',#693,.T.);
#743=FACE_BOUND('',#694,.T.);
#744=FACE_BOUND('',#695,.T.);
#745=FACE_BOUND('',#696,.T.);
#746=FACE_BOUND('',#697,.T.);
#747=FACE_BOUND('',#698,.T.);
#748=FACE_BOUND('',#699,.T.);
#749=B_SPLINE_SURFACE_WITH_KNOTS('',3,1,((#1043,#1044),(#1045,#1046),(#1047,
#1048),(#1049,#1050)),.SURF_OF_LINEAR_EXTRUSION.,.F.,.F.,.F.,(4,4),(2,2),
(0.,1.),(0.,1.),.PIECEWISE_BEZIER_KNOTS.);
#750=B_SPLINE_SURFACE_WITH_KNOTS('',3,1,((#1084,#1085),(#1086,#1087),(#1088,
#1089),(#1090,#1091)),.SURF_OF_LINEAR_EXTRUSION.,.F.,.F.,.F.,(4,4),(2,2),
(0.,1.),(0.,1.),.PIECEWISE_BEZIER_KNOTS.);
#751=B_SPLINE_SURFACE_WITH_KNOTS('',3,1,((#1178,#1179),(#1180,#1181),(#1182,
#1183),(#1184,#1185)),.SURF_OF_LINEAR_EXTRUSION.,.F.,.F.,.F.,(4,4),(2,2),
(0.,1.),(0.,1.),.PIECEWISE_BEZIER_KNOTS.);
#752=B_SPLINE_SURFACE_WITH_KNOTS('',3,1,((#1261,#1262),(#1263,#1264),(#1265,
#1266),(#1267,#1268)),.SURF_OF_LINEAR_EXTRUSION.,.F.,.F.,.F.,(4,4),(2,2),
(0.979294404190802,1.),(0.,1.),.PIECEWISE_BEZIER_KNOTS.);
#753=B_SPLINE_SURFACE_WITH_KNOTS('',3,1,((#1308,#1309),(#1310,#1311),(#1312,
#1313),(#1314,#1315)),.SURF_OF_LINEAR_EXTRUSION.,.F.,.F.,.F.,(4,4),(2,2),
(0.,1.),(0.,1.),.PIECEWISE_BEZIER_KNOTS.);
#754=B_SPLINE_SURFACE_WITH_KNOTS('',3,3,((#1571,#1572,#1573,#1574,#1575),
(#1576,#1577,#1578,#1579,#1580),(#1581,#1582,#1583,#1584,#1585),(#1586,
#1587,#1588,#1589,#1590),(#1591,#1592,#1593,#1594,#1595),(#1596,#1597,#1598,
#1599,#1600),(#1601,#1602,#1603,#1604,#1605),(#1606,#1607,#1608,#1609,#1610),
(#1611,#1612,#1613,#1614,#1615),(#1616,#1617,#1618,#1619,#1620)),
 .UNSPECIFIED.,.F.,.F.,.F.,(4,1,1,1,1,1,1,4),(4,1,4),(-4.7773513249279E-5,
0.00140583659435609,0.00285944670196146,0.00358625175576414,0.00431305680956682,
0.00503986186336951,0.00540326439027085,0.00576666691717219),(-0.00752882135242006,
0.49623558932379,1.),.UNSPECIFIED.);
#755=ADVANCED_FACE('',(#700),#749,.T.);
#756=ADVANCED_FACE('',(#701),#69,.T.);
#757=ADVANCED_FACE('',(#702),#750,.F.);
#758=ADVANCED_FACE('',(#703),#70,.T.);
#759=ADVANCED_FACE('',(#704),#71,.T.);
#760=ADVANCED_FACE('',(#705),#72,.T.);
#761=ADVANCED_FACE('',(#706),#751,.F.);
#762=ADVANCED_FACE('',(#707),#73,.T.);
#763=ADVANCED_FACE('',(#708),#31,.F.);
#764=ADVANCED_FACE('',(#709),#74,.T.);
#765=ADVANCED_FACE('',(#710),#752,.F.);
#766=ADVANCED_FACE('',(#711),#32,.F.);
#767=ADVANCED_FACE('',(#712),#75,.T.);
#768=ADVANCED_FACE('',(#713),#33,.F.);
#769=ADVANCED_FACE('',(#714),#27,.T.);
#770=ADVANCED_FACE('',(#715),#28,.T.);
#771=ADVANCED_FACE('',(#716),#29,.T.);
#772=ADVANCED_FACE('',(#717),#30,.T.);
#773=ADVANCED_FACE('',(#718),#753,.T.);
#774=ADVANCED_FACE('',(#719),#76,.F.);
#775=ADVANCED_FACE('',(#720),#34,.F.);
#776=ADVANCED_FACE('',(#721),#77,.F.);
#777=ADVANCED_FACE('',(#722),#35,.F.);
#778=ADVANCED_FACE('',(#723),#78,.F.);
#779=ADVANCED_FACE('',(#724),#36,.F.);
#780=ADVANCED_FACE('',(#725),#79,.F.);
#781=ADVANCED_FACE('',(#726),#37,.F.);
#782=ADVANCED_FACE('',(#727,#728),#38,.T.);
#783=ADVANCED_FACE('',(#729),#39,.F.);
#784=ADVANCED_FACE('',(#730),#40,.T.);
#785=ADVANCED_FACE('',(#731),#41,.T.);
#786=ADVANCED_FACE('',(#732),#42,.T.);
#787=ADVANCED_FACE('',(#733),#43,.T.);
#788=ADVANCED_FACE('',(#734),#44,.T.);
#789=ADVANCED_FACE('',(#735),#45,.T.);
#790=ADVANCED_FACE('',(#736),#46,.T.);
#791=ADVANCED_FACE('',(#737),#80,.F.);
#792=ADVANCED_FACE('',(#738),#47,.T.);
#793=ADVANCED_FACE('',(#739),#81,.F.);
#794=ADVANCED_FACE('',(#740),#48,.F.);
#795=ADVANCED_FACE('',(#741),#20,.F.);
#796=ADVANCED_FACE('',(#742),#21,.F.);
#797=ADVANCED_FACE('',(#743),#22,.T.);
#798=ADVANCED_FACE('',(#744),#23,.F.);
#799=ADVANCED_FACE('',(#745),#24,.T.);
#800=ADVANCED_FACE('',(#746),#25,.T.);
#801=ADVANCED_FACE('',(#747),#754,.T.);
#802=ADVANCED_FACE('',(#748),#26,.T.);
#803=CLOSED_SHELL('',(#755,#756,#757,#758,#759,#760,#761,#762,#763,#764,
#765,#766,#767,#768,#769,#770,#771,#772,#773,#774,#775,#776,#777,#778,#779,
#780,#781,#782,#783,#784,#785,#786,#787,#788,#789,#790,#791,#792,#793,#794,
#795,#796,#797,#798,#799,#800,#801,#802));
#804=STYLED_ITEM('',(#805),#812);
#805=PRESENTATION_STYLE_ASSIGNMENT((#806));
#806=SURFACE_STYLE_USAGE(.BOTH.,#807);
#807=SURFACE_SIDE_STYLE('',(#808));
#808=SURFACE_STYLE_FILL_AREA(#809);
#809=FILL_AREA_STYLE('',(#810));
#810=FILL_AREA_STYLE_COLOUR('',#811);
#811=COLOUR_RGB('',0.506983280181885,0.531564235687256,0.550000011920929);
#812=MANIFOLD_SOLID_BREP('',#803);
#813=SHAPE_DEFINITION_REPRESENTATION(#1645,#814);
#814=SHAPE_REPRESENTATION('Kindle',(#815),#1640);
#815=AXIS2_PLACEMENT_3D('',#1042,#871,#872);
#816=AXIS2_PLACEMENT_3D('',#1078,#875,#876);
#817=AXIS2_PLACEMENT_3D('',#1079,#877,#878);
#818=AXIS2_PLACEMENT_3D('',#1081,#879,#880);
#819=AXIS2_PLACEMENT_3D('',#1118,#884,#885);
#820=AXIS2_PLACEMENT_3D('',#1122,#887,#888);
#821=AXIS2_PLACEMENT_3D('',#1126,#890,#891);
#822=AXIS2_PLACEMENT_3D('',#1127,#892,#893);
#823=AXIS2_PLACEMENT_3D('',#1128,#894,#895);
#824=AXIS2_PLACEMENT_3D('',#1132,#897,#898);
#825=AXIS2_PLACEMENT_3D('',#1133,#899,#900);
#826=AXIS2_PLACEMENT_3D('',#1137,#902,#903);
#827=AXIS2_PLACEMENT_3D('',#1141,#905,#906);
#828=AXIS2_PLACEMENT_3D('',#1145,#908,#909);
#829=AXIS2_PLACEMENT_3D('',#1161,#911,#912);
#830=AXIS2_PLACEMENT_3D('',#1230,#918,#919);
#831=AXIS2_PLACEMENT_3D('',#1247,#922,#923);
#832=AXIS2_PLACEMENT_3D('',#1251,#926,#927);
#833=AXIS2_PLACEMENT_3D('',#1275,#930,#931);
#834=AXIS2_PLACEMENT_3D('',#1277,#933,#934);
#835=AXIS2_PLACEMENT_3D('',#1278,#935,#936);
#836=AXIS2_PLACEMENT_3D('',#1280,#938,#939);
#837=AXIS2_PLACEMENT_3D('',#1286,#940,#941);
#838=AXIS2_PLACEMENT_3D('',#1287,#942,#943);
#839=AXIS2_PLACEMENT_3D('',#1293,#944,#945);
#840=AXIS2_PLACEMENT_3D('',#1294,#946,#947);
#841=AXIS2_PLACEMENT_3D('',#1300,#948,#949);
#842=AXIS2_PLACEMENT_3D('',#1301,#950,#951);
#843=AXIS2_PLACEMENT_3D('',#1307,#952,#953);
#844=AXIS2_PLACEMENT_3D('',#1336,#954,#955);
#845=AXIS2_PLACEMENT_3D('',#1339,#957,#958);
#846=AXIS2_PLACEMENT_3D('',#1342,#960,#961);
#847=AXIS2_PLACEMENT_3D('',#1346,#964,#965);
#848=AXIS2_PLACEMENT_3D('',#1349,#967,#968);
#849=AXIS2_PLACEMENT_3D('',#1350,#969,#970);
#850=AXIS2_PLACEMENT_3D('',#1354,#973,#974);
#851=AXIS2_PLACEMENT_3D('',#1357,#976,#977);
#852=AXIS2_PLACEMENT_3D('',#1358,#978,#979);
#853=AXIS2_PLACEMENT_3D('',#1362,#982,#983);
#854=AXIS2_PLACEMENT_3D('',#1365,#985,#986);
#855=AXIS2_PLACEMENT_3D('',#1366,#987,#988);
#856=AXIS2_PLACEMENT_3D('',#1368,#990,#991);
#857=AXIS2_PLACEMENT_3D('',#1377,#996,#997);
#858=AXIS2_PLACEMENT_3D('',#1386,#1002,#1003);
#859=AXIS2_PLACEMENT_3D('',#1389,#1006,#1007);
#860=AXIS2_PLACEMENT_3D('',#1391,#1009,#1010);
#861=AXIS2_PLACEMENT_3D('',#1393,#1012,#1013);
#862=AXIS2_PLACEMENT_3D('',#1394,#1014,#1015);
#863=AXIS2_PLACEMENT_3D('',#1400,#1019,#1020);
#864=AXIS2_PLACEMENT_3D('',#1404,#1023,#1024);
#865=AXIS2_PLACEMENT_3D('',#1408,#1027,#1028);
#866=AXIS2_PLACEMENT_3D('',#1409,#1029,#1030);
#867=AXIS2_PLACEMENT_3D('',#1412,#1032,#1033);
#868=AXIS2_PLACEMENT_3D('',#1416,#1036,#1037);
#869=AXIS2_PLACEMENT_3D('',#1417,#1038,#1039);
#870=AXIS2_PLACEMENT_3D('',#1418,#1040,#1041);
#871=DIRECTION('',(0.,0.,1.));
#872=DIRECTION('',(1.,0.,0.));
#873=DIRECTION('',(0.,0.,1.));
#874=DIRECTION('',(0.,0.,1.));
#875=DIRECTION('',(-4.56506177888633E-17,0.,-1.));
#876=DIRECTION('',(-1.,0.,4.56506177888633E-17));
#877=DIRECTION('',(0.,0.,-1.));
#878=DIRECTION('',(-1.,0.,0.));
#879=DIRECTION('',(0.,0.,-1.));
#880=DIRECTION('',(-1.,0.,0.));
#881=DIRECTION('',(-4.56506177888633E-17,0.,-1.));
#882=DIRECTION('',(0.,0.,1.));
#883=DIRECTION('',(0.,0.,1.));
#884=DIRECTION('',(-1.,0.,1.35129384691475E-16));
#885=DIRECTION('',(1.35129384691475E-16,0.,1.));
#886=DIRECTION('',(1.,0.,0.));
#887=DIRECTION('',(1.,0.,0.));
#888=DIRECTION('',(0.,0.,-1.));
#889=DIRECTION('',(-1.,0.,1.35129384691475E-16));
#890=DIRECTION('',(1.,0.,0.));
#891=DIRECTION('',(0.,0.,-1.));
#892=DIRECTION('',(4.56506177888633E-17,0.,1.));
#893=DIRECTION('',(1.,0.,-4.56506177888633E-17));
#894=DIRECTION('',(0.,0.,-1.));
#895=DIRECTION('',(-1.,0.,0.));
#896=DIRECTION('',(4.56506177888633E-17,0.,1.));
#897=DIRECTION('',(0.,0.,-1.));
#898=DIRECTION('',(-1.,0.,0.));
#899=DIRECTION('',(1.,0.,0.));
#900=DIRECTION('',(0.,0.,-1.));
#901=DIRECTION('',(1.,0.,0.));
#902=DIRECTION('',(1.,0.,0.));
#903=DIRECTION('',(0.,0.,-1.));
#904=DIRECTION('',(1.,0.,0.));
#905=DIRECTION('',(1.,0.,0.));
#906=DIRECTION('',(0.,0.,-1.));
#907=DIRECTION('',(1.,0.,0.));
#908=DIRECTION('',(1.,0.,0.));
#909=DIRECTION('',(0.,0.,-1.));
#910=DIRECTION('',(1.,3.1540426835942E-16,0.));
#911=DIRECTION('',(-1.,0.,0.));
#912=DIRECTION('',(0.,0.,1.));
#913=DIRECTION('',(1.,0.,0.));
#914=DIRECTION('',(1.,0.,0.));
#915=DIRECTION('',(1.,0.,0.));
#916=DIRECTION('',(1.,0.,0.));
#917=DIRECTION('',(1.,0.,0.));
#918=DIRECTION('',(0.,0.,-1.));
#919=DIRECTION('',(-1.,0.,0.));
#920=DIRECTION('',(0.,0.,-1.));
#921=DIRECTION('',(0.,0.,-1.));
#922=DIRECTION('',(0.,1.,0.));
#923=DIRECTION('',(0.,0.,1.));
#924=DIRECTION('',(0.,0.,-1.));
#925=DIRECTION('',(1.,0.,0.));
#926=DIRECTION('',(1.,0.,0.));
#927=DIRECTION('',(0.,0.,-1.));
#928=DIRECTION('',(1.,0.,0.));
#929=DIRECTION('',(1.,0.,0.));
#930=DIRECTION('',(1.5770213417971E-16,-1.,0.));
#931=DIRECTION('',(1.,1.5770213417971E-16,0.));
#932=DIRECTION('',(0.,0.,-1.));
#933=DIRECTION('',(0.,0.,-1.));
#934=DIRECTION('',(-1.,0.,0.));
#935=DIRECTION('',(0.,-1.,0.));
#936=DIRECTION('',(0.,0.,-1.));
#937=DIRECTION('',(1.,0.,0.));
#938=DIRECTION('',(0.,-1.,0.));
#939=DIRECTION('',(0.,0.,-1.));
#940=DIRECTION('',(0.,1.,0.));
#941=DIRECTION('',(-1.,0.,0.));
#942=DIRECTION('',(0.,-1.,0.));
#943=DIRECTION('',(0.,0.,-1.));
#944=DIRECTION('',(0.,1.,0.));
#945=DIRECTION('',(-9.47836844507874E-15,0.,-1.));
#946=DIRECTION('',(0.,-1.,0.));
#947=DIRECTION('',(0.,0.,-1.));
#948=DIRECTION('',(0.,1.,0.));
#949=DIRECTION('',(-1.36909766428915E-14,0.,1.));
#950=DIRECTION('',(0.,-1.,0.));
#951=DIRECTION('',(0.,0.,-1.));
#952=DIRECTION('',(0.,1.,0.));
#953=DIRECTION('',(1.,0.,0.));
#954=DIRECTION('',(0.,-1.,0.));
#955=DIRECTION('',(0.,0.,-1.));
#956=DIRECTION('',(0.,-1.,0.));
#957=DIRECTION('',(0.,-1.,0.));
#958=DIRECTION('',(1.,0.,0.));
#959=DIRECTION('',(0.,-1.,0.));
#960=DIRECTION('',(1.35129384691475E-16,0.,1.));
#961=DIRECTION('',(1.,0.,-1.35129384691475E-16));
#962=DIRECTION('',(0.,-1.,0.));
#963=DIRECTION('',(-1.,0.,1.35129384691475E-16));
#964=DIRECTION('',(0.,-1.,0.));
#965=DIRECTION('',(0.,0.,-1.));
#966=DIRECTION('',(0.,-1.,0.));
#967=DIRECTION('',(0.,-1.,0.));
#968=DIRECTION('',(1.,0.,0.));
#969=DIRECTION('',(-1.,0.,4.56506177888633E-17));
#970=DIRECTION('',(4.56506177888633E-17,0.,1.));
#971=DIRECTION('',(0.,-1.,0.));
#972=DIRECTION('',(-4.56506177888633E-17,0.,-1.));
#973=DIRECTION('',(0.,-1.,0.));
#974=DIRECTION('',(0.,0.,-1.));
#975=DIRECTION('',(0.,-1.,0.));
#976=DIRECTION('',(0.,-1.,0.));
#977=DIRECTION('',(1.,0.,0.));
#978=DIRECTION('',(0.,0.,-1.));
#979=DIRECTION('',(-1.,0.,0.));
#980=DIRECTION('',(0.,-1.,0.));
#981=DIRECTION('',(1.,0.,0.));
#982=DIRECTION('',(0.,-1.,0.));
#983=DIRECTION('',(0.,0.,-1.));
#984=DIRECTION('',(0.,-1.,0.));
#985=DIRECTION('',(0.,-1.,0.));
#986=DIRECTION('',(-1.,0.,0.));
#987=DIRECTION('',(1.,0.,-4.56506177888633E-17));
#988=DIRECTION('',(-4.56506177888633E-17,0.,-1.));
#989=DIRECTION('',(4.56506177888633E-17,0.,1.));
#990=DIRECTION('',(0.,-1.,0.));
#991=DIRECTION('',(0.,0.,-1.));
#992=DIRECTION('',(-1.,0.,6.16790569236198E-16));
#993=DIRECTION('',(0.,0.,1.));
#994=DIRECTION('',(1.,0.,0.));
#995=DIRECTION('',(0.,0.,-1.));
#996=DIRECTION('',(0.,1.,0.));
#997=DIRECTION('',(0.,0.,1.));
#998=DIRECTION('',(0.,0.,1.));
#999=DIRECTION('',(-1.,0.,0.));
#1000=DIRECTION('',(0.,0.,-1.));
#1001=DIRECTION('',(1.,0.,-6.16790569236198E-16));
#1002=DIRECTION('',(0.,0.,1.));
#1003=DIRECTION('',(1.,0.,0.));
#1004=DIRECTION('',(0.,-1.,0.));
#1005=DIRECTION('',(0.,-1.,0.));
#1006=DIRECTION('',(-1.,0.,0.));
#1007=DIRECTION('',(0.,0.,1.));
#1008=DIRECTION('',(0.,-1.,0.));
#1009=DIRECTION('',(-6.16790569236198E-16,0.,-1.));
#1010=DIRECTION('',(-1.,0.,6.16790569236198E-16));
#1011=DIRECTION('',(0.,-1.,0.));
#1012=DIRECTION('',(1.,0.,0.));
#1013=DIRECTION('',(0.,0.,-1.));
#1014=DIRECTION('',(0.,-1.,0.));
#1015=DIRECTION('',(0.,0.,-1.));
#1016=DIRECTION('',(0.,0.,-1.));
#1017=DIRECTION('',(-1.,0.,0.));
#1018=DIRECTION('',(0.,0.,-1.));
#1019=DIRECTION('',(-1.,0.,0.));
#1020=DIRECTION('',(0.,0.,1.));
#1021=DIRECTION('',(0.,0.,-1.));
#1022=DIRECTION('',(0.,1.,0.));
#1023=DIRECTION('',(1.,0.,0.));
#1024=DIRECTION('',(0.,0.,-1.));
#1025=DIRECTION('',(0.,-1.,0.));
#1026=DIRECTION('',(0.,0.,-1.));
#1027=DIRECTION('',(0.,0.,-1.));
#1028=DIRECTION('',(-1.,0.,0.));
#1029=DIRECTION('',(0.,0.,1.));
#1030=DIRECTION('',(1.,0.,0.));
#1031=DIRECTION('',(0.,0.,-1.));
#1032=DIRECTION('',(-3.1540426835942E-16,1.,0.));
#1033=DIRECTION('',(-1.,-3.1540426835942E-16,0.));
#1034=DIRECTION('',(1.,3.1540426835942E-16,0.));
#1035=DIRECTION('',(0.,0.,-1.));
#1036=DIRECTION('',(0.,0.,-1.));
#1037=DIRECTION('',(-1.,0.,0.));
#1038=DIRECTION('',(0.,0.,1.));
#1039=DIRECTION('',(-1.,0.,0.));
#1040=DIRECTION('',(0.,0.,1.));
#1041=DIRECTION('',(1.,0.,0.));
#1042=CARTESIAN_POINT('',(0.,0.,0.));
#1043=CARTESIAN_POINT('',(-47.3500000000001,7.85000000000006,-76.0000059281364));
#1044=CARTESIAN_POINT('',(-47.3500000000001,7.85000000000006,76.919323303778));
#1045=CARTESIAN_POINT('',(-52.7960549575291,7.85000000000001,-76.0000059281364));
#1046=CARTESIAN_POINT('',(-52.7960549575291,7.85000000000001,76.919323303778));
#1047=CARTESIAN_POINT('',(-56.3928874398611,7.15548140530836,-76.0000059281364));
#1048=CARTESIAN_POINT('',(-56.3928874398611,7.15548140530836,76.919323303778));
#1049=CARTESIAN_POINT('',(-57.9386914501187,4.51613870608281,-76.0000059281364));
#1050=CARTESIAN_POINT('',(-57.9386914501187,4.51613870608281,76.919323303778));
#1051=CARTESIAN_POINT('',(-47.3500000000001,7.85000000000006,-175.539967274867));
#1052=CARTESIAN_POINT('',(-47.3499999999992,7.85,-72.));
#1053=CARTESIAN_POINT('',(-47.3499999999992,7.85,72.));
#1054=CARTESIAN_POINT('',(-47.3499999999982,7.85000000000003,-71.999999999999));
#1055=CARTESIAN_POINT('',(-48.1593618964974,7.85000000000002,-72.7205236747742));
#1056=CARTESIAN_POINT('',(-49.802510283007,7.81980409268232,-74.135142711376));
#1057=CARTESIAN_POINT('',(-51.5314043478542,7.6759866992611,-75.4367629820064));
#1058=CARTESIAN_POINT('',(-52.4472607738082,7.53062868426084,-76.0000059281321));
#1059=CARTESIAN_POINT('',(-52.4472550900981,7.53062958632963,-76.0000099520435));
#1060=CARTESIAN_POINT('',(-52.4472550900963,7.53062958633699,-76.0000059281364));
#1061=CARTESIAN_POINT('',(-55.0938300965021,7.11058547021304,-76.0000039520909));
#1062=CARTESIAN_POINT('',(-56.9423228603527,6.21736224133442,-76.0000019760455));
#1063=CARTESIAN_POINT('',(-57.9386914501187,4.51613870608281,-76.));
#1064=CARTESIAN_POINT('',(-57.9386914501187,4.51613870608281,-76.));
#1065=CARTESIAN_POINT('',(-57.9386914501187,4.51613870608281,-175.539967274867));
#1066=CARTESIAN_POINT('',(-57.9386914501187,4.51613870608281,76.));
#1067=CARTESIAN_POINT('',(-57.9386914501187,4.51613870608281,76.));
#1068=CARTESIAN_POINT('',(-57.3123453401509,5.58557701880685,76.0016804329273));
#1069=CARTESIAN_POINT('',(-55.6086275552874,6.8326425458301,76.0043069458077));
#1070=CARTESIAN_POINT('',(-53.5391995062549,7.3565905873823,76.0063380147908));
#1071=CARTESIAN_POINT('',(-52.4590615123076,7.5287479697609,76.0072795906652));
#1072=CARTESIAN_POINT('',(-52.4590615123076,7.5287479697609,76.0072795906652));
#1073=CARTESIAN_POINT('',(-52.4590615123076,7.5287479697609,76.0072795906652));
#1074=CARTESIAN_POINT('',(-51.5415883392936,7.674981843633,75.444192326534));
#1075=CARTESIAN_POINT('',(-49.8067268907122,7.81978572012183,74.1388552273023));
#1076=CARTESIAN_POINT('',(-48.160555163963,7.85000000000002,72.7215859649204));
#1077=CARTESIAN_POINT('',(-47.3499999999982,7.85000000000003,71.999999999999));
#1078=CARTESIAN_POINT('',(-55.35,3.,76.));
#1079=CARTESIAN_POINT('',(-55.35,3.,76.));
#1080=CARTESIAN_POINT('',(-55.35,0.,76.));
#1081=CARTESIAN_POINT('',(-55.35,3.,-76.));
#1082=CARTESIAN_POINT('',(-55.35,0.,-76.));
#1083=CARTESIAN_POINT('',(-55.35,0.,76.));
#1084=CARTESIAN_POINT('',(47.3500000000001,7.85000000000006,-76.0000003242728));
#1085=CARTESIAN_POINT('',(47.3500000000001,7.85000000000006,76.0000059305934));
#1086=CARTESIAN_POINT('',(52.7960549575291,7.85000000000001,-76.0000003242728));
#1087=CARTESIAN_POINT('',(52.7960549575291,7.85000000000001,76.0000059305934));
#1088=CARTESIAN_POINT('',(56.3928874398611,7.15548140530836,-76.0000003242728));
#1089=CARTESIAN_POINT('',(56.3928874398611,7.15548140530836,76.0000059305934));
#1090=CARTESIAN_POINT('',(57.9386914501187,4.51613870608281,-76.0000003242728));
#1091=CARTESIAN_POINT('',(57.9386914501187,4.51613870608281,76.0000059305934));
#1092=CARTESIAN_POINT('',(47.3500000000001,7.85000000000006,-175.539967274867));
#1093=CARTESIAN_POINT('',(47.3500000000001,7.85000000000006,-71.999999999999));
#1094=CARTESIAN_POINT('',(47.3499999999989,7.85,72.));
#1095=CARTESIAN_POINT('',(47.349999999998,7.85000000000003,71.999999999999));
#1096=CARTESIAN_POINT('',(48.1593618970729,7.85000000000002,72.7205236753137));
#1097=CARTESIAN_POINT('',(49.8025102848168,7.81980409263646,74.1351427128988));
#1098=CARTESIAN_POINT('',(51.5314043510295,7.6759866989658,75.436762984344));
#1099=CARTESIAN_POINT('',(52.4472607777986,7.53062868362751,76.0000059305862));
#1100=CARTESIAN_POINT('',(52.4472511325749,7.53063021443695,76.000009956143));
#1101=CARTESIAN_POINT('',(52.4472511325731,7.53063021444431,76.0000059305934));
#1102=CARTESIAN_POINT('',(55.093828253755,7.11058636065958,76.0000039537289));
#1103=CARTESIAN_POINT('',(56.942322363717,6.21736308930215,76.0000019768645));
#1104=CARTESIAN_POINT('',(57.9386914501187,4.51613870608281,76.));
#1105=CARTESIAN_POINT('',(57.9386914501187,4.51613870608281,76.));
#1106=CARTESIAN_POINT('',(57.9386914501187,4.51613870608281,-175.539967274867));
#1107=CARTESIAN_POINT('',(57.9386914501187,4.51613870608281,-76.));
#1108=CARTESIAN_POINT('',(57.9386914501187,4.51613870608281,-76.));
#1109=CARTESIAN_POINT('',(56.94232236379,6.21736308917741,-76.000000108091));
#1110=CARTESIAN_POINT('',(55.093828254026,7.1105863605286,-76.0000002161819));
#1111=CARTESIAN_POINT('',(52.4472511331552,7.53063021435192,-76.0000003242729));
#1112=CARTESIAN_POINT('',(52.4472511331552,7.53063021435192,-76.0000001621364));
#1113=CARTESIAN_POINT('',(52.4472516617073,7.5306301304643,-76.0000003242728));
#1114=CARTESIAN_POINT('',(51.5322542657483,7.67585133051247,-75.4372847955375));
#1115=CARTESIAN_POINT('',(49.8013165566499,7.81992415175253,-74.1342838701461));
#1116=CARTESIAN_POINT('',(48.1589042599267,7.85000000000002,-72.7201162696086));
#1117=CARTESIAN_POINT('',(47.3499999999991,7.85000000000003,-71.999999999998));
#1118=CARTESIAN_POINT('',(-51.35,3.,80.));
#1119=CARTESIAN_POINT('',(-201.454840348131,4.51613870608275,82.5886914501186));
#1120=CARTESIAN_POINT('',(-51.3500000000001,4.51613870608281,82.5886914501187));
#1121=CARTESIAN_POINT('',(51.3499999999999,4.51613870608281,82.5886914501187));
#1122=CARTESIAN_POINT('',(-51.35,3.,80.));
#1123=CARTESIAN_POINT('',(-51.35,0.,80.));
#1124=CARTESIAN_POINT('',(-51.35,0.,80.));
#1125=CARTESIAN_POINT('',(51.35,0.,80.));
#1126=CARTESIAN_POINT('',(51.35,3.,80.));
#1127=CARTESIAN_POINT('',(55.35,3.,76.));
#1128=CARTESIAN_POINT('',(55.35,3.,76.));
#1129=CARTESIAN_POINT('',(55.35,0.,76.));
#1130=CARTESIAN_POINT('',(55.35,0.,76.));
#1131=CARTESIAN_POINT('',(55.35,0.,-76.));
#1132=CARTESIAN_POINT('',(55.35,3.,-76.));
#1133=CARTESIAN_POINT('',(-51.35,3.,-80.));
#1134=CARTESIAN_POINT('',(-201.454840348131,4.51613870608275,-82.5886914501186));
#1135=CARTESIAN_POINT('',(15.6065047686983,4.51613870608275,-82.5886914501186));
#1136=CARTESIAN_POINT('',(51.3499999999999,4.51613870608281,-82.5886914501187));
#1137=CARTESIAN_POINT('',(51.35,3.,-80.));
#1138=CARTESIAN_POINT('',(51.35,0.,-80.));
#1139=CARTESIAN_POINT('',(-51.35,0.,-80.));
#1140=CARTESIAN_POINT('',(-51.35,0.,-80.));
#1141=CARTESIAN_POINT('',(-51.35,3.,-80.));
#1142=CARTESIAN_POINT('',(-51.3500000000001,4.51613870608281,-82.5886914501187));
#1143=CARTESIAN_POINT('',(-201.454840348131,4.51613870608275,-82.5886914501186));
#1144=CARTESIAN_POINT('',(-15.7499997564053,4.51613870608275,-82.5886914501186));
#1145=CARTESIAN_POINT('',(-15.7499997564052,3.,-80.));
#1146=CARTESIAN_POINT('',(-15.7499997564052,4.,-82.8284271247462));
#1147=CARTESIAN_POINT('',(-15.7499997564052,4.,-82.8284271247462));
#1148=CARTESIAN_POINT('',(-15.7499997564052,3.74818613624655,-82.9174567700746));
#1149=CARTESIAN_POINT('',(-15.5437792655693,3.22499219712324,-83.0112881011179));
#1150=CARTESIAN_POINT('',(-15.0172177212759,3.,-83.));
#1151=CARTESIAN_POINT('',(-14.7499997564052,3.,-83.));
#1152=CARTESIAN_POINT('',(-14.7499997564052,3.,-83.));
#1153=CARTESIAN_POINT('',(-9.24999975640517,3.,-83.));
#1154=CARTESIAN_POINT('',(-9.24999975640517,3.,-83.));
#1155=CARTESIAN_POINT('',(-9.24999975640517,3.,-83.));
#1156=CARTESIAN_POINT('',(-8.98276732438378,3.,-83.));
#1157=CARTESIAN_POINT('',(-8.45734296495218,3.22389893590975,-83.0113869642543));
#1158=CARTESIAN_POINT('',(-8.24999975640517,3.74810133956359,-82.9174867502294));
#1159=CARTESIAN_POINT('',(-8.24999975640517,4.,-82.8284271247462));
#1160=CARTESIAN_POINT('',(-8.24999975640517,4.,-82.8284271247462));
#1161=CARTESIAN_POINT('',(-8.24999975640517,3.,-80.));
#1162=CARTESIAN_POINT('',(-8.24999975640522,4.51613870608275,-82.5886914501186));
#1163=CARTESIAN_POINT('',(-201.454840348131,4.51613870608275,-82.5886914501186));
#1164=CARTESIAN_POINT('',(8.39349474411208,4.51613870608275,-82.5886914501186));
#1165=CARTESIAN_POINT('',(8.39349474411209,4.51613870608278,-82.5886914501187));
#1166=CARTESIAN_POINT('',(8.22433700308945,4.23543033961738,-82.7530960644655));
#1167=CARTESIAN_POINT('',(8.17259846580665,3.45877917111806,-83.0260920494556));
#1168=CARTESIAN_POINT('',(8.88243053772619,3.,-83.));
#1169=CARTESIAN_POINT('',(9.24999975640517,3.,-83.));
#1170=CARTESIAN_POINT('',(9.24999975640517,3.,-83.));
#1171=CARTESIAN_POINT('',(-51.35,3.,-83.));
#1172=CARTESIAN_POINT('',(14.7499997564052,3.,-83.));
#1173=CARTESIAN_POINT('',(14.7499997564052,3.,-83.));
#1174=CARTESIAN_POINT('',(15.1169894392828,3.,-83.));
#1175=CARTESIAN_POINT('',(15.8255762101458,3.45452728987756,-83.0269036801113));
#1176=CARTESIAN_POINT('',(15.7755498273557,4.23561733007135,-82.7529865483372));
#1177=CARTESIAN_POINT('',(15.6065047686986,4.5161387060829,-82.5886914501186));
#1178=CARTESIAN_POINT('',(-51.9735232747144,7.85,-72.));
#1179=CARTESIAN_POINT('',(51.3500059619857,7.85,-72.));
#1180=CARTESIAN_POINT('',(-51.9735232747144,7.84999999999995,-77.4460549575291));
#1181=CARTESIAN_POINT('',(51.3500059619857,7.84999999999995,-77.4460549575291));
#1182=CARTESIAN_POINT('',(-51.9735232747144,7.1554814053083,-81.0428874398611));
#1183=CARTESIAN_POINT('',(51.3500059619857,7.1554814053083,-81.0428874398611));
#1184=CARTESIAN_POINT('',(-51.9735232747144,4.51613870608275,-82.5886914501186));
#1185=CARTESIAN_POINT('',(51.3500059619857,4.51613870608275,-82.5886914501186));
#1186=CARTESIAN_POINT('',(-51.3500000000001,4.51613870608278,-82.5886914501187));
#1187=CARTESIAN_POINT('',(-51.3516804231007,5.58557076242287,-81.962349004375));
#1188=CARTESIAN_POINT('',(-51.3543069255452,6.83263497297819,-80.2586442103878));
#1189=CARTESIAN_POINT('',(-51.3563379858439,7.35658382673252,-78.1892302287863));
#1190=CARTESIAN_POINT('',(-51.3572795605341,7.5287454505292,-77.1091012082318));
#1191=CARTESIAN_POINT('',(-51.3572795605341,7.52874545052921,-77.1091012082319));
#1192=CARTESIAN_POINT('',(-51.357279561573,7.52874564023601,-77.1091000180255));
#1193=CARTESIAN_POINT('',(-50.7940189752418,7.67502545944568,-76.1913510913779));
#1194=CARTESIAN_POINT('',(-49.4893779251524,7.81974504234667,-74.4573702893261));
#1195=CARTESIAN_POINT('',(-48.0712897397771,7.85000000000002,-72.8102224099798));
#1196=CARTESIAN_POINT('',(-47.3499999999982,7.85000000000003,-71.999999999999));
#1197=CARTESIAN_POINT('',(-201.454840348131,7.85,-72.));
#1198=CARTESIAN_POINT('',(47.3499999999991,7.85000000000003,-71.999999999998));
#1199=CARTESIAN_POINT('',(48.0703803826655,7.85000000000002,-72.8092009315221));
#1200=CARTESIAN_POINT('',(49.4841469923437,7.81991387380727,-74.4511832124479));
#1201=CARTESIAN_POINT('',(50.7871785487446,7.67587945678909,-76.1820800680085));
#1202=CARTESIAN_POINT('',(51.3500059619743,7.53062867552722,-77.0972608288356));
#1203=CARTESIAN_POINT('',(51.3500100088437,7.53063021444274,-77.0972511325378));
#1204=CARTESIAN_POINT('',(51.3500059619857,7.53063021444276,-77.0972511325825));
#1205=CARTESIAN_POINT('',(51.3500039746571,7.1105863606574,-79.7438282537593));
#1206=CARTESIAN_POINT('',(51.3500019873284,6.21736308930007,-81.5923223637181));
#1207=CARTESIAN_POINT('',(51.3499999999998,4.51613870608275,-82.5886914501186));
#1208=CARTESIAN_POINT('',(14.7499997564052,5.,-82.2662354782878));
#1209=CARTESIAN_POINT('',(15.1161380766115,5.,-82.2662354782878));
#1210=CARTESIAN_POINT('',(15.4381683867523,4.79548407039889,-82.4250851156576));
#1211=CARTESIAN_POINT('',(15.6065047686986,4.51613870608275,-82.5886914501186));
#1212=CARTESIAN_POINT('',(14.7499997564052,5.,-82.2662354782878));
#1213=CARTESIAN_POINT('',(-8.32667268468867E-14,5.,-82.2662354782878));
#1214=CARTESIAN_POINT('',(9.24999975640517,5.,-82.2662354782878));
#1215=CARTESIAN_POINT('',(8.39349474411208,4.51613870608275,-82.5886914501186));
#1216=CARTESIAN_POINT('',(8.56194652826911,4.79567557429251,-82.4249729561086));
#1217=CARTESIAN_POINT('',(8.8833646538476,4.99999999999987,-82.2662354782879));
#1218=CARTESIAN_POINT('',(9.2499997564052,4.99999999999986,-82.2662354782879));
#1219=CARTESIAN_POINT('',(-8.24999975640522,7.85,-72.));
#1220=CARTESIAN_POINT('',(-8.24999975640522,7.84999999999995,-77.4460549575291));
#1221=CARTESIAN_POINT('',(-8.24999975640522,7.1554814053083,-81.0428874398611));
#1222=CARTESIAN_POINT('',(-8.24999975640522,4.51613870608275,-82.5886914501186));
#1223=CARTESIAN_POINT('',(-8.24999975640517,5.,-82.2662354782878));
#1224=CARTESIAN_POINT('',(-8.32667268468867E-14,5.,-82.2662354782878));
#1225=CARTESIAN_POINT('',(-15.7499997564052,5.,-82.2662354743463));
#1226=CARTESIAN_POINT('',(-15.7499997564052,7.85,-72.));
#1227=CARTESIAN_POINT('',(-15.7499997564052,7.84999999999995,-77.4460549575291));
#1228=CARTESIAN_POINT('',(-15.7499997564052,7.1554814053083,-81.0428874398611));
#1229=CARTESIAN_POINT('',(-15.7499997564052,4.51613870608275,-82.5886914501186));
#1230=CARTESIAN_POINT('',(14.7499997564052,4.,-81.1094162698711));
#1231=CARTESIAN_POINT('',(14.7499997564052,3.,-81.1094162698711));
#1232=CARTESIAN_POINT('',(14.7499997564052,3.,-83.6));
#1233=CARTESIAN_POINT('',(14.7499997564052,3.,-83.6));
#1234=CARTESIAN_POINT('',(14.9693183381709,3.,-83.6));
#1235=CARTESIAN_POINT('',(15.4002910796475,3.14607952678583,-83.6046334465772));
#1236=CARTESIAN_POINT('',(15.7831177116136,3.71754612966363,-83.5488006836346));
#1237=CARTESIAN_POINT('',(15.746441092739,4.37103772686397,-83.3499057359559));
#1238=CARTESIAN_POINT('',(15.4907733405139,4.70217256754816,-83.1750675753694));
#1239=CARTESIAN_POINT('',(15.3232698716563,4.81936644729934,-83.1064297401424));
#1240=CARTESIAN_POINT('',(15.3232698716563,4.81936644729934,-83.1064297401424));
#1241=CARTESIAN_POINT('',(15.3232698716563,4.8193664472993,-83.1064297401424));
#1242=CARTESIAN_POINT('',(15.1604712244747,4.93326859638065,-83.0397197979744));
#1243=CARTESIAN_POINT('',(14.9597845549154,5.,-82.9960542835549));
#1244=CARTESIAN_POINT('',(14.7499997564052,5.,-82.9960542835549));
#1245=CARTESIAN_POINT('',(14.7499997564052,5.,-82.9960542835549));
#1246=CARTESIAN_POINT('',(14.7499997564052,5.,-81.1094162698711));
#1247=CARTESIAN_POINT('',(14.7499997564052,3.,-81.1094162698711));
#1248=CARTESIAN_POINT('',(9.24999975640517,3.,-81.1094162698711));
#1249=CARTESIAN_POINT('',(9.24999975640517,3.,-83.6));
#1250=CARTESIAN_POINT('',(-51.35,3.,-83.6));
#1251=CARTESIAN_POINT('',(-51.35,3.,-80.));
#1252=CARTESIAN_POINT('',(8.67672964115403,4.81936644729934,-83.1064297401424));
#1253=CARTESIAN_POINT('',(8.50639290232578,4.70019026889781,-83.17622856337));
#1254=CARTESIAN_POINT('',(8.25506569765653,4.37211060723086,-83.3492267284717));
#1255=CARTESIAN_POINT('',(8.21657672570227,3.71872420739445,-83.5486463517216));
#1256=CARTESIAN_POINT('',(8.59768011089439,3.14654762343159,-83.6046316355826));
#1257=CARTESIAN_POINT('',(9.03315690847342,3.,-83.6));
#1258=CARTESIAN_POINT('',(9.24999975640517,3.,-83.6));
#1259=CARTESIAN_POINT('',(8.67672964115402,4.8193664472993,-83.1064297401424));
#1260=CARTESIAN_POINT('',(-51.35,4.81936644729934,-83.1064297401424));
#1261=CARTESIAN_POINT('',(8.63685039977094,5.,-82.9960542835549));
#1262=CARTESIAN_POINT('',(15.3631491130393,5.,-82.9960542835549));
#1263=CARTESIAN_POINT('',(8.63685039977094,4.94066065143436,-83.0338616249064));
#1264=CARTESIAN_POINT('',(15.3631491130393,4.94066065143436,-83.0338616249064));
#1265=CARTESIAN_POINT('',(8.63685039977094,4.88044735884107,-83.070656015859));
#1266=CARTESIAN_POINT('',(15.3631491130393,4.88044735884107,-83.070656015859));
#1267=CARTESIAN_POINT('',(8.63685039977094,4.81936644729931,-83.1064297401424));
#1268=CARTESIAN_POINT('',(15.3631491130393,4.81936644729931,-83.1064297401424));
#1269=CARTESIAN_POINT('',(9.24999975640517,4.99999999999999,-82.9960542835549));
#1270=CARTESIAN_POINT('',(9.04020671555654,4.99999999999999,-82.9960542835549));
#1271=CARTESIAN_POINT('',(8.83895400053721,4.93286679565586,-83.0399551236757));
#1272=CARTESIAN_POINT('',(8.67672964115402,4.8193664472993,-83.1064297401424));
#1273=CARTESIAN_POINT('',(9.24999975640517,5.,-82.9960542835549));
#1274=CARTESIAN_POINT('',(14.7499997564052,5.,-82.9960542835549));
#1275=CARTESIAN_POINT('',(14.7499997564052,5.,-81.1094162698711));
#1276=CARTESIAN_POINT('',(9.24999975640517,5.,-81.1094162698711));
#1277=CARTESIAN_POINT('',(9.24999975640517,4.,-81.1094162698711));
#1278=CARTESIAN_POINT('',(-51.35,7.85,76.));
#1279=CARTESIAN_POINT('',(-201.454840348131,7.85,72.));
#1280=CARTESIAN_POINT('',(-51.35,3.,76.));
#1281=CARTESIAN_POINT('',(-55.35,0.,76.));
#1282=CARTESIAN_POINT('',(-55.35,0.,77.0471975511966));
#1283=CARTESIAN_POINT('',(-54.4832554738941,0.,79.1332554738941));
#1284=CARTESIAN_POINT('',(-52.3971975511966,0.,80.));
#1285=CARTESIAN_POINT('',(-51.35,0.,80.));
#1286=CARTESIAN_POINT('',(-51.35,4.51613870608281,76.));
#1287=CARTESIAN_POINT('',(-51.35,3.,-76.));
#1288=CARTESIAN_POINT('',(-51.35,0.,-80.));
#1289=CARTESIAN_POINT('',(-52.3971975511966,0.,-80.));
#1290=CARTESIAN_POINT('',(-54.4832554738941,0.,-79.1332554738941));
#1291=CARTESIAN_POINT('',(-55.35,0.,-77.0471975511966));
#1292=CARTESIAN_POINT('',(-55.35,0.,-76.));
#1293=CARTESIAN_POINT('',(-51.35,4.51613870608281,-76.));
#1294=CARTESIAN_POINT('',(51.35,3.,76.));
#1295=CARTESIAN_POINT('',(51.35,0.,80.));
#1296=CARTESIAN_POINT('',(52.3971975511966,0.,80.));
#1297=CARTESIAN_POINT('',(54.4832554738941,0.,79.1332554738941));
#1298=CARTESIAN_POINT('',(55.35,0.,77.0471975511966));
#1299=CARTESIAN_POINT('',(55.35,0.,76.));
#1300=CARTESIAN_POINT('',(51.35,4.51613870608281,76.));
#1301=CARTESIAN_POINT('',(51.35,3.,-76.));
#1302=CARTESIAN_POINT('',(55.35,0.,-76.));
#1303=CARTESIAN_POINT('',(55.35,0.,-77.0471975511966));
#1304=CARTESIAN_POINT('',(54.4832554738941,0.,-79.1332554738941));
#1305=CARTESIAN_POINT('',(52.3971975511966,0.,-80.));
#1306=CARTESIAN_POINT('',(51.35,0.,-80.));
#1307=CARTESIAN_POINT('',(51.35,4.51613870608281,-76.));
#1308=CARTESIAN_POINT('',(-51.3500059652498,7.85,72.));
#1309=CARTESIAN_POINT('',(51.3500014706325,7.85,72.));
#1310=CARTESIAN_POINT('',(-51.3500059652498,7.84999999999995,77.4460549575291));
#1311=CARTESIAN_POINT('',(51.3500014706325,7.84999999999995,77.4460549575291));
#1312=CARTESIAN_POINT('',(-51.3500059652498,7.1554814053083,81.0428874398611));
#1313=CARTESIAN_POINT('',(51.3500014706325,7.1554814053083,81.0428874398611));
#1314=CARTESIAN_POINT('',(-51.3500059652498,4.51613870608275,82.5886914501186));
#1315=CARTESIAN_POINT('',(51.3500014706325,4.51613870608275,82.5886914501186));
#1316=CARTESIAN_POINT('',(51.3499999999998,4.51613870608275,82.5886914501186));
#1317=CARTESIAN_POINT('',(51.3500004902109,6.21736308918459,81.5923223637857));
#1318=CARTESIAN_POINT('',(51.350000980422,7.11058636053614,79.7438282540102));
#1319=CARTESIAN_POINT('',(51.3500014706331,7.53063021435722,77.0972511331214));
#1320=CARTESIAN_POINT('',(51.3500024688211,7.53063021435725,77.0972511331187));
#1321=CARTESIAN_POINT('',(51.3500014706327,7.53062983462076,77.097253525732));
#1322=CARTESIAN_POINT('',(50.7871002741018,7.67589909412092,76.181953934601));
#1323=CARTESIAN_POINT('',(49.4848555268103,7.81988212422246,74.4520388731186));
#1324=CARTESIAN_POINT('',(48.0697130016865,7.85000000000002,72.8084512652497));
#1325=CARTESIAN_POINT('',(47.349999999998,7.85000000000003,71.999999999999));
#1326=CARTESIAN_POINT('',(-47.3499999999981,7.85,71.999999999999));
#1327=CARTESIAN_POINT('',(-48.0703941124788,7.84999999999999,72.80921635417));
#1328=CARTESIAN_POINT('',(-49.4842514837941,7.81990271633609,74.4513217631306));
#1329=CARTESIAN_POINT('',(-50.7871382584749,7.67588985504642,76.1820145535198));
#1330=CARTESIAN_POINT('',(-51.3500059652458,7.53062867468293,77.0972608341552));
#1331=CARTESIAN_POINT('',(-51.3500100143853,7.53062867468745,77.0972608340819));
#1332=CARTESIAN_POINT('',(-51.3500059652498,7.53062867469486,77.0972608340801));
#1333=CARTESIAN_POINT('',(-51.3500039768333,7.1105841778099,79.7438327710816));
#1334=CARTESIAN_POINT('',(-51.3500019884167,6.21736101058612,81.5923235811744));
#1335=CARTESIAN_POINT('',(-51.3500000000002,4.51613870608275,82.5886914501187));
#1336=CARTESIAN_POINT('',(51.35,0.2,76.));
#1337=CARTESIAN_POINT('',(51.35,0.2,80.));
#1338=CARTESIAN_POINT('',(51.35,0.2,80.));
#1339=CARTESIAN_POINT('',(51.35,0.2,76.));
#1340=CARTESIAN_POINT('',(55.35,0.2,76.));
#1341=CARTESIAN_POINT('',(55.35,0.2,76.));
#1342=CARTESIAN_POINT('',(51.35,0.2,80.));
#1343=CARTESIAN_POINT('',(-51.35,0.2,80.));
#1344=CARTESIAN_POINT('',(-51.35,0.2,80.));
#1345=CARTESIAN_POINT('',(51.35,0.2,80.));
#1346=CARTESIAN_POINT('',(-51.35,0.2,76.));
#1347=CARTESIAN_POINT('',(-55.35,0.2,76.));
#1348=CARTESIAN_POINT('',(-55.35,0.2,76.));
#1349=CARTESIAN_POINT('',(-51.35,0.2,76.));
#1350=CARTESIAN_POINT('',(-55.35,0.2,76.));
#1351=CARTESIAN_POINT('',(-55.35,0.2,-76.));
#1352=CARTESIAN_POINT('',(-55.35,0.2,-76.));
#1353=CARTESIAN_POINT('',(-55.35,0.2,76.));
#1354=CARTESIAN_POINT('',(-51.35,0.2,-76.));
#1355=CARTESIAN_POINT('',(-51.35,0.2,-80.));
#1356=CARTESIAN_POINT('',(-51.35,0.2,-80.));
#1357=CARTESIAN_POINT('',(-51.35,0.2,-76.));
#1358=CARTESIAN_POINT('',(-51.35,0.2,-80.));
#1359=CARTESIAN_POINT('',(51.35,0.2,-80.));
#1360=CARTESIAN_POINT('',(51.35,0.2,-80.));
#1361=CARTESIAN_POINT('',(-51.35,0.2,-80.));
#1362=CARTESIAN_POINT('',(51.35,0.2,-76.));
#1363=CARTESIAN_POINT('',(55.35,0.2,-76.));
#1364=CARTESIAN_POINT('',(55.35,0.2,-76.));
#1365=CARTESIAN_POINT('',(51.35,0.2,-76.));
#1366=CARTESIAN_POINT('',(55.35,0.2,-76.));
#1367=CARTESIAN_POINT('',(55.35,0.2,-76.));
#1368=CARTESIAN_POINT('',(51.35,0.2,76.));
#1369=CARTESIAN_POINT('',(-45.,0.2,63.));
#1370=CARTESIAN_POINT('',(45.,0.2,63.));
#1371=CARTESIAN_POINT('',(-45.,0.2,63.));
#1372=CARTESIAN_POINT('',(45.,0.2,-59.));
#1373=CARTESIAN_POINT('',(45.,0.2,-59.));
#1374=CARTESIAN_POINT('',(-45.,0.2,-59.));
#1375=CARTESIAN_POINT('',(-45.,0.2,-59.));
#1376=CARTESIAN_POINT('',(-45.,0.2,63.));
#1377=CARTESIAN_POINT('',(0.,0.3,0.));
#1378=CARTESIAN_POINT('',(-45.,0.3,63.));
#1379=CARTESIAN_POINT('',(-45.,0.3,-59.));
#1380=CARTESIAN_POINT('',(-45.,0.3,63.));
#1381=CARTESIAN_POINT('',(-45.,0.3,-59.));
#1382=CARTESIAN_POINT('',(45.,0.3,-59.));
#1383=CARTESIAN_POINT('',(45.,0.3,-59.));
#1384=CARTESIAN_POINT('',(45.,0.3,63.));
#1385=CARTESIAN_POINT('',(-45.,0.3,63.));
#1386=CARTESIAN_POINT('',(-45.,0.3,-59.));
#1387=CARTESIAN_POINT('',(-45.,0.3,-59.));
#1388=CARTESIAN_POINT('',(45.,0.3,-59.));
#1389=CARTESIAN_POINT('',(45.,0.3,-59.));
#1390=CARTESIAN_POINT('',(45.,0.3,63.));
#1391=CARTESIAN_POINT('',(-45.,0.3,63.));
#1392=CARTESIAN_POINT('',(-45.,0.3,63.));
#1393=CARTESIAN_POINT('',(-45.,0.3,63.));
#1394=CARTESIAN_POINT('',(-8.24999975640517,5.,-78.));
#1395=CARTESIAN_POINT('',(-8.24999975640517,5.,-78.));
#1396=CARTESIAN_POINT('',(-8.24999975640517,5.,-78.));
#1397=CARTESIAN_POINT('',(-8.24999975640517,5.,-78.));
#1398=CARTESIAN_POINT('',(-15.7499997564052,5.,-78.));
#1399=CARTESIAN_POINT('',(-15.7499997564052,5.,-78.));
#1400=CARTESIAN_POINT('',(-8.24999975640517,4.,-78.));
#1401=CARTESIAN_POINT('',(-8.24999975640517,4.,-78.));
#1402=CARTESIAN_POINT('',(-8.24999975640517,4.,-78.));
#1403=CARTESIAN_POINT('',(-8.24999975640517,4.,-78.));
#1404=CARTESIAN_POINT('',(-15.7499997564052,4.,-78.));
#1405=CARTESIAN_POINT('',(-15.7499997564052,4.,-78.));
#1406=CARTESIAN_POINT('',(-15.7499997564052,4.,-78.));
#1407=CARTESIAN_POINT('',(-15.7499997564052,4.,-78.));
#1408=CARTESIAN_POINT('',(-14.7499997564052,4.,-78.));
#1409=CARTESIAN_POINT('',(-14.7499997564052,4.,-78.));
#1410=CARTESIAN_POINT('',(-14.7499997564052,3.,-78.));
#1411=CARTESIAN_POINT('',(-14.7499997564052,3.,-78.));
#1412=CARTESIAN_POINT('',(-9.24999975640517,3.,-78.));
#1413=CARTESIAN_POINT('',(-9.24999975640517,3.,-78.));
#1414=CARTESIAN_POINT('',(-9.24999975640517,3.,-78.));
#1415=CARTESIAN_POINT('',(-9.24999975640517,3.,-78.));
#1416=CARTESIAN_POINT('',(-9.24999975640517,4.,-78.));
#1417=CARTESIAN_POINT('',(-9.24999975640517,4.,-78.));
#1418=CARTESIAN_POINT('',(-14.7499997564052,4.,-78.));
#1419=CARTESIAN_POINT('',(-51.2911324400993,4.51613870608281,-82.5886914501187));
#1420=CARTESIAN_POINT('',(-51.3107549600662,4.51613870608281,-82.5886914501187));
#1421=CARTESIAN_POINT('',(-51.3303774800331,4.51613870608281,-82.5886914501187));
#1422=CARTESIAN_POINT('',(-51.3500000000001,4.51613870608281,-82.5886914501187));
#1423=CARTESIAN_POINT('',(-55.2095660931879,4.51613870608281,-82.5886914501187));
#1424=CARTESIAN_POINT('',(-57.9386914501187,4.51613870608281,-79.8595660931879));
#1425=CARTESIAN_POINT('',(-57.9386914501187,4.51613870608281,-76.));
#1426=CARTESIAN_POINT('',(-51.3002776566686,6.26380489483549,-81.5651224365313));
#1427=CARTESIAN_POINT('',(-51.3168517711124,6.26380489483549,-81.5651224365313));
#1428=CARTESIAN_POINT('',(-51.3334258855562,6.26380489483549,-81.5651224365313));
#1429=CARTESIAN_POINT('',(-51.3500000000001,6.26380489483549,-81.5651224365313));
#1430=CARTESIAN_POINT('',(-54.6099732470532,6.26380489483549,-81.5651224365312));
#1431=CARTESIAN_POINT('',(-56.9151224365313,6.26380489483549,-79.2599732470532));
#1432=CARTESIAN_POINT('',(-56.9151224365313,6.26380489483549,-76.));
#1433=CARTESIAN_POINT('',(-51.317457652584,7.15875249685191,-79.6422689601557));
#1434=CARTESIAN_POINT('',(-51.3283051017227,7.15875249685191,-79.6422689601557));
#1435=CARTESIAN_POINT('',(-51.3391525508614,7.15875249685191,-79.6422689601557));
#1436=CARTESIAN_POINT('',(-51.3500000000001,7.15875249685191,-79.6422689601557));
#1437=CARTESIAN_POINT('',(-53.4835917590487,7.15875249685191,-79.6422689601557));
#1438=CARTESIAN_POINT('',(-54.9922689601557,7.15875249685191,-78.1335917590487));
#1439=CARTESIAN_POINT('',(-54.9922689601557,7.15875249685191,-76.));
#1440=CARTESIAN_POINT('',(-51.3421489491237,7.56397952386242,-76.878720841676));
#1441=CARTESIAN_POINT('',(-51.3447659660825,7.56397952386242,-76.878720841676));
#1442=CARTESIAN_POINT('',(-51.3473829830412,7.56397952386242,-76.878720841676));
#1443=CARTESIAN_POINT('',(-51.35,7.56397952386242,-76.878720841676));
#1444=CARTESIAN_POINT('',(-51.8647427515139,7.56397952386243,-76.878720841676));
#1445=CARTESIAN_POINT('',(-52.228720841676,7.56397952386243,-76.5147427515139));
#1446=CARTESIAN_POINT('',(-52.228720841676,7.56397952386242,-76.));
#1447=CARTESIAN_POINT('',(-52.4472494078715,7.53063048817527,-76.));
#1448=CARTESIAN_POINT('',(-52.3908451274943,7.53958252528424,-76.1292381060333));
#1449=CARTESIAN_POINT('',(-52.2736121883044,7.55074149894998,-76.3459759040062));
#1450=CARTESIAN_POINT('',(-52.0934856924715,7.55648294493742,-76.5770340609595));
#1451=CARTESIAN_POINT('',(-51.9041482089887,7.55574904012838,-76.7598508860001));
#1452=CARTESIAN_POINT('',(-51.8282107783681,7.55394896362227,-76.8200051439885));
#1453=CARTESIAN_POINT('',(-51.7022119760655,7.54979369839318,-76.9092841454161));
#1454=CARTESIAN_POINT('',(-51.6679905734933,7.54839917655292,-76.9303634383057));
#1455=CARTESIAN_POINT('',(-51.5958121068069,7.54568074257602,-76.9719402850837));
#1456=CARTESIAN_POINT('',(-51.4623558317851,7.5386473977749,-77.0466268551468));
#1457=CARTESIAN_POINT('',(-51.3243147142308,7.52919284747945,-77.1064867099122));
#1458=CARTESIAN_POINT('',(-51.3572795576882,7.52874192683552,-77.1090994261551));
#1459=CARTESIAN_POINT('',(57.9386914501187,4.51613870608281,-76.));
#1460=CARTESIAN_POINT('',(57.9386914501187,4.51613870608281,-79.8595660931879));
#1461=CARTESIAN_POINT('',(55.2095660931878,4.51613870608281,-82.5886914501187));
#1462=CARTESIAN_POINT('',(51.3499999999999,4.51613870608281,-82.5886914501187));
#1463=CARTESIAN_POINT('',(56.9155689930529,6.26304243356147,-76.));
#1464=CARTESIAN_POINT('',(56.9155689930529,6.26304243356147,-79.2602348338073));
#1465=CARTESIAN_POINT('',(54.6102348338072,6.26304243356147,-81.5655689930529));
#1466=CARTESIAN_POINT('',(51.3499999999999,6.26304243356147,-81.5655689930529));
#1467=CARTESIAN_POINT('',(54.9939465708469,7.15797144985538,-76.));
#1468=CARTESIAN_POINT('',(54.993946570847,7.15797144985539,-78.1345744806392));
#1469=CARTESIAN_POINT('',(53.4845744806392,7.15797144985539,-79.643946570847));
#1470=CARTESIAN_POINT('',(51.35,7.15797144985538,-79.6439465708469));
#1471=CARTESIAN_POINT('',(52.2323373539933,7.56344887418264,-76.));
#1472=CARTESIAN_POINT('',(52.2323373539933,7.56344887418264,-76.5168612553809));
#1473=CARTESIAN_POINT('',(51.8668612553809,7.56344887418264,-76.8823373539933));
#1474=CARTESIAN_POINT('',(51.35,7.56344887418264,-76.8823373539933));
#1475=CARTESIAN_POINT('',(51.3499999997449,7.53063021421611,-77.0972511340107));
#1476=CARTESIAN_POINT('',(51.590988931521,7.54732651375727,-76.9920524887906));
#1477=CARTESIAN_POINT('',(52.0485107999646,7.5649562251519,-76.7035783735142));
#1478=CARTESIAN_POINT('',(52.342052484483,7.54732651444376,-76.2409889296539));
#1479=CARTESIAN_POINT('',(52.4472511344203,7.53063021415114,-75.999999999989));
#1480=CARTESIAN_POINT('',(51.35,7.56344887418158,76.8823373540005));
#1481=CARTESIAN_POINT('',(51.8668612553851,7.56344887418158,76.8823373540005));
#1482=CARTESIAN_POINT('',(52.2323373540005,7.56344887418158,76.5168612553851));
#1483=CARTESIAN_POINT('',(52.2323373540005,7.56344887418158,76.));
#1484=CARTESIAN_POINT('',(51.35,7.15797144985383,79.6439465708503));
#1485=CARTESIAN_POINT('',(53.4845744806411,7.15797144985383,79.6439465708503));
#1486=CARTESIAN_POINT('',(54.9939465708503,7.15797144985383,78.1345744806412));
#1487=CARTESIAN_POINT('',(54.9939465708503,7.15797144985383,76.));
#1488=CARTESIAN_POINT('',(51.3499999999999,6.26304243355995,81.5655689930537));
#1489=CARTESIAN_POINT('',(54.6102348338077,6.26304243355995,81.5655689930538));
#1490=CARTESIAN_POINT('',(56.9155689930538,6.26304243355995,79.2602348338078));
#1491=CARTESIAN_POINT('',(56.9155689930538,6.26304243355995,76.));
#1492=CARTESIAN_POINT('',(51.3499999999999,4.51613870608281,82.5886914501187));
#1493=CARTESIAN_POINT('',(55.2095660931878,4.51613870608281,82.5886914501188));
#1494=CARTESIAN_POINT('',(57.9386914501187,4.51613870608281,79.8595660931879));
#1495=CARTESIAN_POINT('',(57.9386914501187,4.51613870608281,76.));
#1496=CARTESIAN_POINT('',(52.447251134046,7.53063021421055,75.9999999997658));
#1497=CARTESIAN_POINT('',(52.341816613489,7.54736395002566,76.2415292726983));
#1498=CARTESIAN_POINT('',(52.0511887187778,7.56491904998866,76.700598325286));
#1499=CARTESIAN_POINT('',(51.5915292715634,7.54736395043335,76.9918166109319));
#1500=CARTESIAN_POINT('',(51.3499999999159,7.53063021416069,77.0972511343599));
#1501=CARTESIAN_POINT('',(-57.9386914501187,4.51613870608281,75.9411305983505));
#1502=CARTESIAN_POINT('',(-57.9386914501187,4.51613870608281,75.9607537322337));
#1503=CARTESIAN_POINT('',(-57.9386914501187,4.51613870608281,75.9803768661168));
#1504=CARTESIAN_POINT('',(-57.9386914501187,4.51613870608281,76.));
#1505=CARTESIAN_POINT('',(-57.9386914501187,4.51613870608281,79.8595660931879));
#1506=CARTESIAN_POINT('',(-55.2095660931879,4.51613870608281,82.5886914501187));
#1507=CARTESIAN_POINT('',(-51.3500000000001,4.51613870608281,82.5886914501187));
#1508=CARTESIAN_POINT('',(-56.9155652311837,6.26304885666672,75.9502721447071));
#1509=CARTESIAN_POINT('',(-56.9155652311837,6.26304885666672,75.9668480964714));
#1510=CARTESIAN_POINT('',(-56.9155652311837,6.26304885666672,75.9834240482357));
#1511=CARTESIAN_POINT('',(-56.9155652311837,6.26304885666672,76.));
#1512=CARTESIAN_POINT('',(-56.9155652311837,6.26304885666672,79.2602326301553));
#1513=CARTESIAN_POINT('',(-54.6102326301553,6.26304885666672,81.5655652311837));
#1514=CARTESIAN_POINT('',(-51.3500000000001,6.26304885666672,81.5655652311837));
#1515=CARTESIAN_POINT('',(-54.993932439795,7.15797803088571,75.9674417714039));
#1516=CARTESIAN_POINT('',(-54.993932439795,7.15797803088571,75.9782945142693));
#1517=CARTESIAN_POINT('',(-54.993932439795,7.15797803088571,75.9891472571346));
#1518=CARTESIAN_POINT('',(-54.993932439795,7.15797803088571,76.));
#1519=CARTESIAN_POINT('',(-54.993932439795,7.15797803088571,78.1345662028606));
#1520=CARTESIAN_POINT('',(-53.4845662028606,7.15797803088571,79.643932439795));
#1521=CARTESIAN_POINT('',(-51.35,7.15797803088571,79.643932439795));
#1522=CARTESIAN_POINT('',(-52.2323068918799,7.56345334680337,75.9921166624376));
#1523=CARTESIAN_POINT('',(-52.2323068918799,7.56345334680337,75.994744441625));
#1524=CARTESIAN_POINT('',(-52.2323068918799,7.56345334680337,75.9973722208125));
#1525=CARTESIAN_POINT('',(-52.2323068918799,7.56345334680337,76.));
#1526=CARTESIAN_POINT('',(-52.2323068918799,7.56345334680337,76.516843411088));
#1527=CARTESIAN_POINT('',(-51.866843411088,7.56345334680337,76.8823068918799));
#1528=CARTESIAN_POINT('',(-51.35,7.56345334680337,76.8823068918799));
#1529=CARTESIAN_POINT('',(-51.35,7.5306304881903,77.0972494077768));
#1530=CARTESIAN_POINT('',(-51.4605354100146,7.53828703088194,77.0490076751457));
#1531=CARTESIAN_POINT('',(-51.7110708552535,7.55201104508648,76.9196882396645));
#1532=CARTESIAN_POINT('',(-52.1208657619462,7.56035170808254,76.5840651501537));
#1533=CARTESIAN_POINT('',(-52.3399220872704,7.54748184325913,76.2512439491391));
#1534=CARTESIAN_POINT('',(-52.4590615123076,7.5287479697609,76.0072795906651));
#1535=CARTESIAN_POINT('',(-51.4546965570348,7.502329400219,77.2700984127124));
#1536=CARTESIAN_POINT('',(-52.0455865049687,7.59933135439718,76.6955865049682));
#1537=CARTESIAN_POINT('',(-52.620098412713,7.50232940021895,76.1046965570344));
#1538=CARTESIAN_POINT('',(-51.1145413028472,7.59865003476685,76.6996217457416));
#1539=CARTESIAN_POINT('',(-51.5866444859585,7.65715755682691,76.2366444858895));
#1540=CARTESIAN_POINT('',(-52.0496217457981,7.5986500347574,75.7645413028199));
#1541=CARTESIAN_POINT('',(-50.4315068927768,7.71361781717232,75.7134919739167));
#1542=CARTESIAN_POINT('',(-50.7492377763494,7.73965003928703,75.399237776276));
#1543=CARTESIAN_POINT('',(-51.0634919740026,7.71361781717658,75.081506892692));
#1544=CARTESIAN_POINT('',(-49.0630419133676,7.8323368321046,73.9551154259771));
#1545=CARTESIAN_POINT('',(-49.184735818755,7.83280317500911,73.8347358192523));
#1546=CARTESIAN_POINT('',(-49.3051154254426,7.83233683210201,73.713041913841));
#1547=CARTESIAN_POINT('',(-48.0350656264739,7.85000000000716,72.7691114998558));
#1548=CARTESIAN_POINT('',(-48.0770885644183,7.85000000085154,72.7270885621381));
#1549=CARTESIAN_POINT('',(-48.119111502286,7.85000000000717,72.6850656243495));
#1550=CARTESIAN_POINT('',(-47.3500000000325,7.85000000000003,72.0000000000325));
#1551=CARTESIAN_POINT('',(-47.3500000000325,7.85000000000003,72.0000000000325));
#1552=CARTESIAN_POINT('',(-47.3500000000325,7.85000000000003,72.0000000000325));
#1553=CARTESIAN_POINT('',(51.4546894031067,7.50233142596666,-77.2700864148238));
#1554=CARTESIAN_POINT('',(52.0455768259917,7.59933257393617,-76.6955768259912));
#1555=CARTESIAN_POINT('',(52.6200864148244,7.50233142596662,-76.1046894031063));
#1556=CARTESIAN_POINT('',(51.1145179224102,7.5986560273985,-76.6995838143756));
#1557=CARTESIAN_POINT('',(51.5866136690608,7.65716127376061,-76.2366136690686));
#1558=CARTESIAN_POINT('',(52.0495838143465,7.59865602740351,-75.7645179224165));
#1559=CARTESIAN_POINT('',(50.4316283937734,7.7136004644671,-75.7136614531972));
#1560=CARTESIAN_POINT('',(50.7493834649176,7.73963767489896,-75.3993834648061));
#1561=CARTESIAN_POINT('',(51.0636614533251,7.71360046446479,-75.081628393671));
#1562=CARTESIAN_POINT('',(49.0629867532887,7.83234619442792,-73.9550356309882));
#1563=CARTESIAN_POINT('',(49.1846687066371,7.83280971448061,-73.8346687071714));
#1564=CARTESIAN_POINT('',(49.3050356304149,7.83234619442928,-73.712986753782));
#1565=CARTESIAN_POINT('',(48.0350603836313,7.84999999999992,-72.7691055061189));
#1566=CARTESIAN_POINT('',(48.0770829461622,7.85000000086329,-72.7270829438114));
#1567=CARTESIAN_POINT('',(48.1191055086164,7.84999999999991,-72.6850603814599));
#1568=CARTESIAN_POINT('',(47.3499999999989,7.85000000000003,-72.));
#1569=CARTESIAN_POINT('',(47.3499999999995,7.85000000000003,-71.9999999999995));
#1570=CARTESIAN_POINT('',(47.3500000000001,7.85000000000003,-71.9999999999989));
#1571=CARTESIAN_POINT('',(-47.349999999999,7.85,-71.999999999999));
#1572=CARTESIAN_POINT('',(-47.349999999999,7.85,-71.999999999999));
#1573=CARTESIAN_POINT('',(-47.349999999999,7.85,-71.999999999999));
#1574=CARTESIAN_POINT('',(-47.349999999999,7.85,-71.999999999999));
#1575=CARTESIAN_POINT('',(-47.349999999999,7.85,-71.999999999999));
#1576=CARTESIAN_POINT('',(-47.6922801181876,7.84802601643028,-72.3886362452139));
#1577=CARTESIAN_POINT('',(-47.6999488270569,7.84807971098553,-72.3809675215793));
#1578=CARTESIAN_POINT('',(-47.7152862447954,7.84818710009603,-72.3656300743102));
#1579=CARTESIAN_POINT('',(-47.730623691499,7.84808182966345,-72.3502926565277));
#1580=CARTESIAN_POINT('',(-47.7382924148508,7.84802919444715,-72.3426239476364));
#1581=CARTESIAN_POINT('',(-48.3768403545647,7.84407804929084,-73.1659087356437));
#1582=CARTESIAN_POINT('',(-48.3998464811725,7.84423913295659,-73.14290256474));
#1583=CARTESIAN_POINT('',(-48.4458587343881,7.8445613002881,-73.0968902229326));
#1584=CARTESIAN_POINT('',(-48.4918710744989,7.84424548899034,-73.0508779695849));
#1585=CARTESIAN_POINT('',(-48.5148772445544,7.84408758334146,-73.0278718429111));
#1586=CARTESIAN_POINT('',(-49.2320512422128,7.80934183209836,-74.1927082993158));
#1587=CARTESIAN_POINT('',(-49.2834645601569,7.81083613245964,-74.1413375040989));
#1588=CARTESIAN_POINT('',(-49.3862911960452,7.81382473318219,-74.038595913665));
#1589=CARTESIAN_POINT('',(-49.4890342598904,7.81089509811447,-73.9357694825594));
#1590=CARTESIAN_POINT('',(-49.540405791813,7.8094302805806,-73.8843562670066));
#1591=CARTESIAN_POINT('',(-49.9152211983762,7.75805386002347,-75.0580195007673));
#1592=CARTESIAN_POINT('',(-49.9968813020155,7.76223552388023,-74.9766330269781));
#1593=CARTESIAN_POINT('',(-50.1602015092941,7.77059885159376,-74.8138600793996));
#1594=CARTESIAN_POINT('',(-50.3229839314809,7.76240050556808,-74.6505411932087));
#1595=CARTESIAN_POINT('',(-50.4043751425743,7.75830133255525,-74.5688817501132));
#1596=CARTESIAN_POINT('',(-50.4267762459149,7.70316558937395,-75.7379993209769));
#1597=CARTESIAN_POINT('',(-50.5364927701712,7.71070771469104,-75.628945706398));
#1598=CARTESIAN_POINT('',(-50.7559258186839,7.72579196532521,-75.4108384772401));
#1599=CARTESIAN_POINT('',(-50.9740559960066,7.71100523872667,-75.1914086320147));
#1600=CARTESIAN_POINT('',(-51.083121084668,7.7036118754274,-75.081693709402));
#1601=CARTESIAN_POINT('',(-50.8521882027452,7.63758649793484,-76.3429815510416));
#1602=CARTESIAN_POINT('',(-50.9919932616853,7.64994557855421,-76.2046068672253));
#1603=CARTESIAN_POINT('',(-51.2716033795654,7.67466373979296,-75.9278574995929));
#1604=CARTESIAN_POINT('',(-51.5484022335043,7.6504330065738,-75.6482543082579));
#1605=CARTESIAN_POINT('',(-51.6868016604738,7.63831763996421,-75.5084527125905));
#1606=CARTESIAN_POINT('',(-51.1918361912605,7.56875108747359,-76.859189900152));
#1607=CARTESIAN_POINT('',(-51.3614179717472,7.58691842154499,-76.6921797430767));
#1608=CARTESIAN_POINT('',(-51.7005815327207,7.62325308968778,-76.358159428926));
#1609=CARTESIAN_POINT('',(-52.0346907657524,7.58763472946531,-76.0190083464128));
#1610=CARTESIAN_POINT('',(-52.2017453822682,7.56982554935408,-75.8494328051562));
#1611=CARTESIAN_POINT('',(-51.361249327683,7.52347144205055,-77.1389981777155));
#1612=CARTESIAN_POINT('',(-51.5496290274086,7.54604598076466,-76.9542649459336));
#1613=CARTESIAN_POINT('',(-51.9263884268597,7.59119505819288,-76.5847984823697));
#1614=CARTESIAN_POINT('',(-52.2959808912987,7.54693582836054,-76.2080568183829));
#1615=CARTESIAN_POINT('',(-52.4807771235181,7.52480621344438,-76.0196859863895));
#1616=CARTESIAN_POINT('',(-51.4459558958942,7.50083161933903,-77.2789023164973));
#1617=CARTESIAN_POINT('',(-51.6437345552392,7.52560976037449,-77.085307547362));
#1618=CARTESIAN_POINT('',(-52.0392918739293,7.57516604244543,-76.6981180090915));
#1619=CARTESIAN_POINT('',(-52.4266259540718,7.52658637780816,-76.302581054368));
#1620=CARTESIAN_POINT('',(-52.6202929941431,7.50229654548953,-76.1048125770062));
#1621=CARTESIAN_POINT('',(47.349999999999,7.85000000000003,72.));
#1622=CARTESIAN_POINT('',(47.3499999999995,7.85000000000003,71.9999999999995));
#1623=CARTESIAN_POINT('',(47.3500000000001,7.85000000000003,71.9999999999989));
#1624=CARTESIAN_POINT('',(48.0352200285798,7.84999999999992,72.7692847364337));
#1625=CARTESIAN_POINT('',(48.077252383969,7.85000000076683,72.7272523812915));
#1626=CARTESIAN_POINT('',(48.1192847392814,7.84999999999992,72.6852200261053));
#1627=CARTESIAN_POINT('',(49.0634548081291,7.83234226011826,73.9555658853041));
#1628=CARTESIAN_POINT('',(49.1851693545997,7.83280086590981,73.8351693551924));
#1629=CARTESIAN_POINT('',(49.3055658846675,7.83234226011689,73.7134548086784));
#1630=CARTESIAN_POINT('',(50.4319675399535,7.71353330704284,75.7141715206214));
#1631=CARTESIAN_POINT('',(50.7498081743569,7.73959278188966,75.3998081742568));
#1632=CARTESIAN_POINT('',(51.0641715207382,7.71353330704508,75.0819675398587));
#1633=CARTESIAN_POINT('',(51.1143315324606,7.59871001027339,76.6992687658994));
#1634=CARTESIAN_POINT('',(51.5863616582171,7.65719334496022,76.236361658167));
#1635=CARTESIAN_POINT('',(52.0492687659295,7.5987100102684,75.7643315324199));
#1636=CARTESIAN_POINT('',(51.4547031123645,7.50232754396236,77.270109406712));
#1637=CARTESIAN_POINT('',(52.045595374079,7.59933023689727,76.6955953740785));
#1638=CARTESIAN_POINT('',(52.6201094067127,7.50232754396232,76.1047031123641));
#1639=MECHANICAL_DESIGN_GEOMETRIC_PRESENTATION_REPRESENTATION('',(#804),
#1640);
#1640=(
GEOMETRIC_REPRESENTATION_CONTEXT(3)
GLOBAL_UNCERTAINTY_ASSIGNED_CONTEXT((#1641))
GLOBAL_UNIT_ASSIGNED_CONTEXT((#1644,#1643,#1642))
REPRESENTATION_CONTEXT('Kindle','TOP_LEVEL_ASSEMBLY_PART')
);
#1641=UNCERTAINTY_MEASURE_WITH_UNIT(LENGTH_MEASURE(0.005),#1644,
'DISTANCE_ACCURACY_VALUE','Maximum Tolerance applied to model');
#1642=(
NAMED_UNIT(*)
SI_UNIT($,.STERADIAN.)
SOLID_ANGLE_UNIT()
);
#1643=(
NAMED_UNIT(*)
PLANE_ANGLE_UNIT()
SI_UNIT($,.RADIAN.)
);
#1644=(
LENGTH_UNIT()
NAMED_UNIT(*)
SI_UNIT(.MILLI.,.METRE.)
);
#1645=PRODUCT_DEFINITION_SHAPE('','',#1646);
#1646=PRODUCT_DEFINITION('','',#1648,#1647);
#1647=PRODUCT_DEFINITION_CONTEXT('',#1654,'design');
#1648=PRODUCT_DEFINITION_FORMATION_WITH_SPECIFIED_SOURCE('','',#1650,
 .NOT_KNOWN.);
#1649=PRODUCT_RELATED_PRODUCT_CATEGORY('','',(#1650));
#1650=PRODUCT('Kindle','Kindle','Kindle',(#1652));
#1651=PRODUCT_CATEGORY('','');
#1652=PRODUCT_CONTEXT('',#1654,'mechanical');
#1653=APPLICATION_PROTOCOL_DEFINITION('international standard',
'automotive_design',2010,#1654);
#1654=APPLICATION_CONTEXT(
'core data for automotive mechanical design processes');
ENDSEC;
END-ISO-10303-21;
