999
FreeCAD v26.3 47829 (Git)
  0
SECTION
  2
HEADER
  9
$ACADVER
  1
AC1014
  9
$ACADMAINTVER
 70
     9
  9
$DWGCODEPAGE
  3
ANSI_1252
  9
$TEXTSTYLE
  7
STANDARD
  9
$DIMSTYLE
  2
STANDARD
  9
$DIMTXSTY
  7
STANDARD
  9
$CMLSTYLE
  2
STANDARD
  9
$LUNITS
 70
2
  9
$INSUNITS
 70
4
  9
$PEXTMAX
 10
50
 20
50
 30
50
  9
$PEXTMIN
 10
0
 20
0
 30
0
  9
$HANDSEED
  5
FFFF
  0
ENDSEC
  0
SECTION
  2
CLASSES
  0
CLASS
  1
ACDBDICTIONARYWDFLT
  2
AcDbDictionaryWithDefault
  3
ObjectDBX Classes
 90
        0
280
     0
281
     0
  0
CLASS
  1
XRECORD
  2
AcDbXrecord
  3
ObjectDBX Classes
 90
        0
280
     0
281
     0
  0
CLASS
  1
LWPOLYLINE
  2
AcDbPolyline
  3
ObjectDBX Classes
 90
        0
280
     0
281
     1
  0
ENDSEC
  0
SECTION
  2
TABLES
  0
TABLE
  2
VPORT
  5
20
330
0
100
AcDbSymbolTable
 70
     1
  0
VPORT
  5
21
330
20
100
AcDbSymbolTableRecord
100
AcDbViewportTableRecord
  2
*ACTIVE
 70
     0
  0
ENDTAB
  0
TABLE
  2
LTYPE
  5
22
330
0
100
AcDbSymbolTable
 70
     1
  0
LTYPE
  5
23
330
21
100
AcDbSymbolTableRecord
100
AcDbLinetypeTableRecord
  2
BYBLOCK
 70
     0
  3

 72
    65
 73
     0
 40
0.0
  0
LTYPE
  5
24
330
21
100
AcDbSymbolTableRecord
100
AcDbLinetypeTableRecord
  2
BYLAYER
 70
     0
  3

 72
    65
 73
     0
 40
0.0
  0
LTYPE
  5
25
330
21
100
AcDbSymbolTableRecord
100
AcDbLinetypeTableRecord
  2
CONTINUOUS
 70
     0
  3
Solid line
 72
    65
 73
     0
 40
0.0
  0
ENDTAB
  0
TABLE
  2
LAYER
  5
A8F
330
0
100
AcDbSymbolTable
 70
8
  0
LAYER
  5
A90
330
A8F
100
AcDbSymbolTableRecord
100
AcDbLayerTableRecord
  2
0
 70
   0
 62
   7
  6
CONTINUOUS
  0
LAYER
  5
A91
330
A8F
100
AcDbSymbolTableRecord
100
AcDbLayerTableRecord
  2
none
 70
    0
 62
    7
  6
CONTINUOUS
  0
LAYER
  5
A92
330
A8F
100
AcDbSymbolTableRecord
100
AcDbLayerTableRecord
  2
flat_L1_Face
 70
    0
 62
    7
  6
CONTINUOUS
  0
LAYER
  5
A93
330
A8F
100
AcDbSymbolTableRecord
100
AcDbLayerTableRecord
  2
flat_L2_Pocket
 70
    0
 62
    7
  6
CONTINUOUS
  0
LAYER
  5
A94
330
A8F
100
AcDbSymbolTableRecord
100
AcDbLayerTableRecord
  2
flat_L3_Pocket
 70
    0
 62
    7
  6
CONTINUOUS
  0
LAYER
  5
A95
330
A8F
100
AcDbSymbolTableRecord
100
AcDbLayerTableRecord
  2
flat_L4_Pocket
 70
    0
 62
    7
  6
CONTINUOUS
  0
LAYER
  5
A96
330
A8F
100
AcDbSymbolTableRecord
100
AcDbLayerTableRecord
  2
flat_L5_Back
 70
    0
 62
    7
  6
CONTINUOUS
  0
LAYER
  5
A97
330
A8F
100
AcDbSymbolTableRecord
100
AcDbLayerTableRecord
  2
flat_BackPanel
 70
    0
 62
    7
  6
CONTINUOUS
  0
ENDTAB
  0
TABLE
  2
STYLE
  5
70
330
0
100
AcDbSymbolTable
 70
     2
  0
STYLE
  5
71
330
70
100
AcDbSymbolTableRecord
100
AcDbTextStyleTableRecord
  2
STANDARD
 70
     0
 40
0.0
 41
1.0
 50
0.0
 71
     0
 42
2.5
  3
arial.ttf
  4

  0
STYLE
  5
72
330
70
100
AcDbSymbolTableRecord
100
AcDbTextStyleTableRecord
  2
ANNOTATIVE
 70
     0
 40
0.0
 41
1.0
 50
0.0
 71
     0
 42
2.5
  3
arial.ttf
  4

  0
ENDTAB
  0
TABLE
  2
VIEW
  5
73
330
0
100
AcDbSymbolTable
 70
     0
  0
ENDTAB
  0
TABLE
  2
UCS
  5
74
330
0
100
AcDbSymbolTable
 70
     0
  0
ENDTAB
  0
TABLE
  2
APPID
  5
75
330
0
100
AcDbSymbolTable
 70
     2
  0
APPID
  5
76
330
75
100
AcDbSymbolTableRecord
100
AcDbRegAppTableRecord
  2
ACAD
 70
     0
  0
APPID
  5
77
330
75
100
AcDbSymbolTableRecord
100
AcDbRegAppTableRecord
  2
ACADANNOTATIVE
 70
     0
  0
ENDTAB
  0
TABLE
  2
DIMSTYLE
  5
78
330
0
100
AcDbSymbolTable
 70
     2
  0
DIMSTYLE
105
79
330
78
100
AcDbSymbolTableRecord
100
AcDbDimStyleTableRecord
  2
STANDARD
 70
     0
  3

  4

  5

  6

  7

 40
0.0
 41
2.5
 42
0.625
 43
3.75
 44
1.25
 45
0.0
 46
0.0
 47
0.0
 48
0.0
140
2.5
141
2.5
142
0.0
143
0.03937007874016
144
1.0
145
0.0
146
1.0
147
0.625
 71
     0
 72
     0
 73
     0
 74
     0
 75
     0
 76
     0
 77
     1
 78
     8
170
     0
171
     3
172
     1
173
     0
174
     0
175
     0
176
     0
177
     0
178
     0
270
     2
271
     2
272
     2
273
     2
274
     3
340
71
275
     0
280
     0
281
     0
282
     0
283
     0
284
     8
285
     0
286
     0
287
     3
288
     0
  0
ENDTAB
  0
TABLE
  2
BLOCK_RECORD
  5
A01
330
0
100
AcDbSymbolTable
  70
5
  0
BLOCK_RECORD
  5
A02
330
A01
100
AcDbSymbolTableRecord
100
AcDbBlockTableRecord
  2
*MODEL_SPACE
  0
BLOCK_RECORD
  5
A03
330
A01
100
AcDbSymbolTableRecord
100
AcDbBlockTableRecord
  2
*PAPER_SPACE
  0
ENDTAB
  0
ENDSEC
  0
SECTION
  2
BLOCKS
  0
BLOCK
  5
A04
330
A02
100
AcDbEntity
  8
0
100
AcDbBlockBegin
  2
*MODEL_SPACE
 70
   0
 10
0
 20
0
 30
0
  3
*MODEL_SPACE
  1
 
  0
ENDBLK
  5
A05
330
A02
100
AcDbEntity
  8
0
100
AcDbBlockEnd
  0
BLOCK
  5
A06
330
A03
100
AcDbEntity
 67
1
  8
0
100
AcDbBlockBegin
  2
*PAPER_SPACE
 70
   0
 10
0
 20
0
 30
0
  3
*PAPER_SPACE
  1
 
  0
ENDBLK
  5
A07
330
A03
100
AcDbEntity
 67
    1
  8
0
100
AcDbBlockEnd
  0
ENDSEC
  0
SECTION
  2
ENTITIES
  0
LINE
  5
A08
330
A02
100
AcDbEntity
  8
flat_L1_Face
100
AcDbLine
 10
0.000000000
 20
4.000000000
 30
0.000000000
 11
0.000000000
 21
188.200000000
 31
0.000000000
  0
ARC
  5
A09
330
A02
100
AcDbEntity
  8
flat_L1_Face
100
AcDbCircle
 10
4.000000000
 20
4.000000000
 30
0.000000000
 40
4.000000000
100
AcDbArc
 50
180.000000000
 51
-90.000000000
  0
ARC
  5
A0A
330
A02
100
AcDbEntity
  8
flat_L1_Face
100
AcDbCircle
 10
4.000000000
 20
188.200000000
 30
0.000000000
 40
4.000000000
100
AcDbArc
 50
90.000000000
 51
180.000000000
  0
LINE
  5
A0B
330
A02
100
AcDbEntity
  8
flat_L1_Face
100
AcDbLine
 10
4.000000000
 20
0.000000000
 30
0.000000000
 11
146.800000000
 21
0.000000000
 31
0.000000000
  0
LINE
  5
A0C
330
A02
100
AcDbEntity
  8
flat_L1_Face
100
AcDbLine
 10
4.000000000
 20
192.200000000
 30
0.000000000
 11
146.800000000
 21
192.200000000
 31
0.000000000
  0
ARC
  5
A0D
330
A02
100
AcDbEntity
  8
flat_L1_Face
100
AcDbCircle
 10
146.800000000
 20
4.000000000
 30
0.000000000
 40
4.000000000
100
AcDbArc
 50
-90.000000000
 51
-0.000000000
  0
ARC
  5
A0E
330
A02
100
AcDbEntity
  8
flat_L1_Face
100
AcDbCircle
 10
146.800000000
 20
188.200000000
 30
0.000000000
 40
4.000000000
100
AcDbArc
 50
0.000000000
 51
90.000000000
  0
LINE
  5
A0F
330
A02
100
AcDbEntity
  8
flat_L1_Face
100
AcDbLine
 10
150.800000000
 20
4.000000000
 30
0.000000000
 11
150.800000000
 21
188.200000000
 31
0.000000000
  0
LINE
  5
A10
330
A02
100
AcDbEntity
  8
flat_L1_Face
100
AcDbLine
 10
121.300000000
 20
36.500000000
 30
0.000000000
 11
29.500000000
 21
36.500000000
 31
0.000000000
  0
LINE
  5
A11
330
A02
100
AcDbEntity
  8
flat_L1_Face
100
AcDbLine
 10
121.300000000
 20
36.500000000
 30
0.000000000
 11
121.300000000
 21
160.100000000
 31
0.000000000
  0
LINE
  5
A12
330
A02
100
AcDbEntity
  8
flat_L1_Face
100
AcDbLine
 10
121.300000000
 20
160.100000000
 30
0.000000000
 11
29.500000000
 21
160.100000000
 31
0.000000000
  0
LINE
  5
A13
330
A02
100
AcDbEntity
  8
flat_L1_Face
100
AcDbLine
 10
29.500000000
 20
36.500000000
 30
0.000000000
 11
29.500000000
 21
160.100000000
 31
0.000000000
  0
LINE
  5
A14
330
A02
100
AcDbEntity
  8
flat_L2_Pocket
100
AcDbLine
 10
164.800000000
 20
4.000000000
 30
0.000000000
 11
164.800000000
 21
188.200000000
 31
0.000000000
  0
ARC
  5
A15
330
A02
100
AcDbEntity
  8
flat_L2_Pocket
100
AcDbCircle
 10
168.800000000
 20
4.000000000
 30
0.000000000
 40
4.000000000
100
AcDbArc
 50
180.000000000
 51
-90.000000000
  0
ARC
  5
A16
330
A02
100
AcDbEntity
  8
flat_L2_Pocket
100
AcDbCircle
 10
168.800000000
 20
188.200000000
 30
0.000000000
 40
4.000000000
100
AcDbArc
 50
90.000000000
 51
180.000000000
  0
LINE
  5
A17
330
A02
100
AcDbEntity
  8
flat_L2_Pocket
100
AcDbLine
 10
315.600000000
 20
4.000000000
 30
0.000000000
 11
315.600000000
 21
188.200000000
 31
0.000000000
  0
ARC
  5
A18
330
A02
100
AcDbEntity
  8
flat_L2_Pocket
100
AcDbCircle
 10
311.600000000
 20
4.000000000
 30
0.000000000
 40
4.000000000
100
AcDbArc
 50
-90.000000000
 51
0.000000000
  0
ARC
  5
A19
330
A02
100
AcDbEntity
  8
flat_L2_Pocket
100
AcDbCircle
 10
311.600000000
 20
188.200000000
 30
0.000000000
 40
4.000000000
100
AcDbArc
 50
0.000000000
 51
90.000000000
  0
LINE
  5
A1A
330
A02
100
AcDbEntity
  8
flat_L2_Pocket
100
AcDbLine
 10
259.200000000
 20
0.000000000
 30
0.000000000
 11
311.600000000
 21
0.000000000
 31
0.000000000
  0
LINE
  5
A1B
330
A02
100
AcDbEntity
  8
flat_L2_Pocket
100
AcDbLine
 10
168.800000000
 20
192.200000000
 30
0.000000000
 11
311.600000000
 21
192.200000000
 31
0.000000000
  0
LINE
  5
A1C
330
A02
100
AcDbEntity
  8
flat_L2_Pocket
100
AcDbLine
 10
259.200000000
 20
0.000000000
 30
0.000000000
 11
259.200000000
 21
10.000000000
 31
0.000000000
  0
LINE
  5
A1D
330
A02
100
AcDbEntity
  8
flat_L2_Pocket
100
AcDbLine
 10
284.725000000
 20
10.000000000
 30
0.000000000
 11
259.200000000
 21
10.000000000
 31
0.000000000
  0
LINE
  5
A1E
330
A02
100
AcDbEntity
  8
flat_L2_Pocket
100
AcDbLine
 10
284.725000000
 20
10.000000000
 30
0.000000000
 11
284.725000000
 21
12.000000000
 31
0.000000000
  0
LINE
  5
A1F
330
A02
100
AcDbEntity
  8
flat_L2_Pocket
100
AcDbLine
 10
299.725000000
 20
12.000000000
 30
0.000000000
 11
284.725000000
 21
12.000000000
 31
0.000000000
  0
LINE
  5
A20
330
A02
100
AcDbEntity
  8
flat_L2_Pocket
100
AcDbLine
 10
168.800000000
 20
0.000000000
 30
0.000000000
 11
245.200000000
 21
0.000000000
 31
0.000000000
  0
LINE
  5
A21
330
A02
100
AcDbEntity
  8
flat_L2_Pocket
100
AcDbLine
 10
299.725000000
 20
12.000000000
 30
0.000000000
 11
299.725000000
 21
180.200000000
 31
0.000000000
  0
LINE
  5
A22
330
A02
100
AcDbEntity
  8
flat_L2_Pocket
100
AcDbLine
 10
245.200000000
 20
0.000000000
 30
0.000000000
 11
245.200000000
 21
10.000000000
 31
0.000000000
  0
LINE
  5
A23
330
A02
100
AcDbEntity
  8
flat_L2_Pocket
100
AcDbLine
 10
299.725000000
 20
180.200000000
 30
0.000000000
 11
180.675000000
 21
180.200000000
 31
0.000000000
  0
LINE
  5
A24
330
A02
100
AcDbEntity
  8
flat_L2_Pocket
100
AcDbLine
 10
245.200000000
 20
10.000000000
 30
0.000000000
 11
195.675000000
 21
10.000000000
 31
0.000000000
  0
LINE
  5
A25
330
A02
100
AcDbEntity
  8
flat_L2_Pocket
100
AcDbLine
 10
180.675000000
 20
12.000000000
 30
0.000000000
 11
180.675000000
 21
180.200000000
 31
0.000000000
  0
LINE
  5
A26
330
A02
100
AcDbEntity
  8
flat_L2_Pocket
100
AcDbLine
 10
195.675000000
 20
10.000000000
 30
0.000000000
 11
195.675000000
 21
12.000000000
 31
0.000000000
  0
LINE
  5
A27
330
A02
100
AcDbEntity
  8
flat_L2_Pocket
100
AcDbLine
 10
195.675000000
 20
12.000000000
 30
0.000000000
 11
180.675000000
 21
12.000000000
 31
0.000000000
  0
LINE
  5
A28
330
A02
100
AcDbEntity
  8
flat_L3_Pocket
100
AcDbLine
 10
329.600000000
 20
4.000000000
 30
0.000000000
 11
329.600000000
 21
188.200000000
 31
0.000000000
  0
ARC
  5
A29
330
A02
100
AcDbEntity
  8
flat_L3_Pocket
100
AcDbCircle
 10
333.600000000
 20
4.000000000
 30
0.000000000
 40
4.000000000
100
AcDbArc
 50
180.000000000
 51
-90.000000000
  0
ARC
  5
A2A
330
A02
100
AcDbEntity
  8
flat_L3_Pocket
100
AcDbCircle
 10
333.600000000
 20
188.200000000
 30
0.000000000
 40
4.000000000
100
AcDbArc
 50
90.000000000
 51
180.000000000
  0
LINE
  5
A2B
330
A02
100
AcDbEntity
  8
flat_L3_Pocket
100
AcDbLine
 10
480.400000000
 20
4.000000000
 30
0.000000000
 11
480.400000000
 21
188.200000000
 31
0.000000000
  0
ARC
  5
A2C
330
A02
100
AcDbEntity
  8
flat_L3_Pocket
100
AcDbCircle
 10
476.400000000
 20
4.000000000
 30
0.000000000
 40
4.000000000
100
AcDbArc
 50
-90.000000000
 51
0.000000000
  0
ARC
  5
A2D
330
A02
100
AcDbEntity
  8
flat_L3_Pocket
100
AcDbCircle
 10
476.400000000
 20
188.200000000
 30
0.000000000
 40
4.000000000
100
AcDbArc
 50
0.000000000
 51
90.000000000
  0
LINE
  5
A2E
330
A02
100
AcDbEntity
  8
flat_L3_Pocket
100
AcDbLine
 10
424.000000000
 20
0.000000000
 30
0.000000000
 11
476.400000000
 21
0.000000000
 31
0.000000000
  0
LINE
  5
A2F
330
A02
100
AcDbEntity
  8
flat_L3_Pocket
100
AcDbLine
 10
333.600000000
 20
192.200000000
 30
0.000000000
 11
476.400000000
 21
192.200000000
 31
0.000000000
  0
LINE
  5
A30
330
A02
100
AcDbEntity
  8
flat_L3_Pocket
100
AcDbLine
 10
424.000000000
 20
0.000000000
 30
0.000000000
 11
424.000000000
 21
10.000000000
 31
0.000000000
  0
LINE
  5
A31
330
A02
100
AcDbEntity
  8
flat_L3_Pocket
100
AcDbLine
 10
439.146006380
 20
10.000000000
 30
0.000000000
 11
424.000000000
 21
10.000000000
 31
0.000000000
  0
ARC
  5
A32
330
A02
100
AcDbEntity
  8
flat_L3_Pocket
100
AcDbCircle
 10
440.400000000
 20
9.500000000
 30
0.000000000
 40
1.350000000
100
AcDbArc
 50
158.261539208
 51
180.000000000
  0
ARC
  5
A33
330
A02
100
AcDbEntity
  8
flat_L3_Pocket
100
AcDbCircle
 10
440.400000000
 20
9.500000000
 30
0.000000000
 40
1.350000000
100
AcDbArc
 50
180.000000000
 51
21.738460792
  0
LINE
  5
A34
330
A02
100
AcDbEntity
  8
flat_L3_Pocket
100
AcDbLine
 10
333.600000000
 20
0.000000000
 30
0.000000000
 11
410.000000000
 21
0.000000000
 31
0.000000000
  0
LINE
  5
A35
330
A02
100
AcDbEntity
  8
flat_L3_Pocket
100
AcDbLine
 10
449.525000000
 20
10.000000000
 30
0.000000000
 11
441.653993620
 21
10.000000000
 31
0.000000000
  0
LINE
  5
A36
330
A02
100
AcDbEntity
  8
flat_L3_Pocket
100
AcDbLine
 10
410.000000000
 20
0.000000000
 30
0.000000000
 11
410.000000000
 21
10.000000000
 31
0.000000000
  0
LINE
  5
A37
330
A02
100
AcDbEntity
  8
flat_L3_Pocket
100
AcDbLine
 10
449.525000000
 20
10.000000000
 30
0.000000000
 11
449.525000000
 21
12.000000000
 31
0.000000000
  0
LINE
  5
A38
330
A02
100
AcDbEntity
  8
flat_L3_Pocket
100
AcDbLine
 10
410.000000000
 20
10.000000000
 30
0.000000000
 11
370.853993620
 21
10.000000000
 31
0.000000000
  0
LINE
  5
A39
330
A02
100
AcDbEntity
  8
flat_L3_Pocket
100
AcDbLine
 10
464.525000000
 20
12.000000000
 30
0.000000000
 11
449.525000000
 21
12.000000000
 31
0.000000000
  0
ARC
  5
A3A
330
A02
100
AcDbEntity
  8
flat_L3_Pocket
100
AcDbCircle
 10
369.600000000
 20
9.500000000
 30
0.000000000
 40
1.350000000
100
AcDbArc
 50
180.000000000
 51
21.738460792
  0
LINE
  5
A3B
330
A02
100
AcDbEntity
  8
flat_L3_Pocket
100
AcDbLine
 10
464.525000000
 20
12.000000000
 30
0.000000000
 11
464.525000000
 21
180.200000000
 31
0.000000000
  0
ARC
  5
A3C
330
A02
100
AcDbEntity
  8
flat_L3_Pocket
100
AcDbCircle
 10
369.600000000
 20
9.500000000
 30
0.000000000
 40
1.350000000
100
AcDbArc
 50
158.261539208
 51
180.000000000
  0
LINE
  5
A3D
330
A02
100
AcDbEntity
  8
flat_L3_Pocket
100
AcDbLine
 10
464.525000000
 20
180.200000000
 30
0.000000000
 11
345.475000000
 21
180.200000000
 31
0.000000000
  0
LINE
  5
A3E
330
A02
100
AcDbEntity
  8
flat_L3_Pocket
100
AcDbLine
 10
368.346006380
 20
10.000000000
 30
0.000000000
 11
360.475000000
 21
10.000000000
 31
0.000000000
  0
LINE
  5
A3F
330
A02
100
AcDbEntity
  8
flat_L3_Pocket
100
AcDbLine
 10
345.475000000
 20
12.000000000
 30
0.000000000
 11
345.475000000
 21
180.200000000
 31
0.000000000
  0
LINE
  5
A40
330
A02
100
AcDbEntity
  8
flat_L3_Pocket
100
AcDbLine
 10
360.475000000
 20
10.000000000
 30
0.000000000
 11
360.475000000
 21
12.000000000
 31
0.000000000
  0
LINE
  5
A41
330
A02
100
AcDbEntity
  8
flat_L3_Pocket
100
AcDbLine
 10
360.475000000
 20
12.000000000
 30
0.000000000
 11
345.475000000
 21
12.000000000
 31
0.000000000
  0
CIRCLE
  5
A42
330
A02
100
AcDbEntity
  8
flat_L3_Pocket
100
AcDbCircle
 10
369.600000000
 20
182.700000000
 30
0.000000000
 40
1.350000000
  0
CIRCLE
  5
A43
330
A02
100
AcDbEntity
  8
flat_L3_Pocket
100
AcDbCircle
 10
405.000000000
 20
182.700000000
 30
0.000000000
 40
1.350000000
  0
CIRCLE
  5
A44
330
A02
100
AcDbEntity
  8
flat_L3_Pocket
100
AcDbCircle
 10
440.400000000
 20
182.700000000
 30
0.000000000
 40
1.350000000
  0
LINE
  5
A45
330
A02
100
AcDbEntity
  8
flat_L4_Pocket
100
AcDbLine
 10
0.000000000
 20
210.200000000
 30
0.000000000
 11
0.000000000
 21
394.400000000
 31
0.000000000
  0
ARC
  5
A46
330
A02
100
AcDbEntity
  8
flat_L4_Pocket
100
AcDbCircle
 10
4.000000000
 20
210.200000000
 30
0.000000000
 40
4.000000000
100
AcDbArc
 50
180.000000000
 51
-90.000000000
  0
ARC
  5
A47
330
A02
100
AcDbEntity
  8
flat_L4_Pocket
100
AcDbCircle
 10
4.000000000
 20
394.400000000
 30
0.000000000
 40
4.000000000
100
AcDbArc
 50
90.000000000
 51
180.000000000
  0
LINE
  5
A48
330
A02
100
AcDbEntity
  8
flat_L4_Pocket
100
AcDbLine
 10
150.800000000
 20
210.200000000
 30
0.000000000
 11
150.800000000
 21
394.400000000
 31
0.000000000
  0
ARC
  5
A49
330
A02
100
AcDbEntity
  8
flat_L4_Pocket
100
AcDbCircle
 10
146.800000000
 20
210.200000000
 30
0.000000000
 40
4.000000000
100
AcDbArc
 50
-90.000000000
 51
0.000000000
  0
ARC
  5
A4A
330
A02
100
AcDbEntity
  8
flat_L4_Pocket
100
AcDbCircle
 10
146.800000000
 20
394.400000000
 30
0.000000000
 40
4.000000000
100
AcDbArc
 50
0.000000000
 51
90.000000000
  0
LINE
  5
A4B
330
A02
100
AcDbEntity
  8
flat_L4_Pocket
100
AcDbLine
 10
94.400000000
 20
206.200000000
 30
0.000000000
 11
146.800000000
 21
206.200000000
 31
0.000000000
  0
LINE
  5
A4C
330
A02
100
AcDbEntity
  8
flat_L4_Pocket
100
AcDbLine
 10
4.000000000
 20
398.400000000
 30
0.000000000
 11
146.800000000
 21
398.400000000
 31
0.000000000
  0
LINE
  5
A4D
330
A02
100
AcDbEntity
  8
flat_L4_Pocket
100
AcDbLine
 10
94.400000000
 20
206.200000000
 30
0.000000000
 11
94.400000000
 21
216.200000000
 31
0.000000000
  0
LINE
  5
A4E
330
A02
100
AcDbEntity
  8
flat_L4_Pocket
100
AcDbLine
 10
109.546006380
 20
216.200000000
 30
0.000000000
 11
94.400000000
 21
216.200000000
 31
0.000000000
  0
ARC
  5
A4F
330
A02
100
AcDbEntity
  8
flat_L4_Pocket
100
AcDbCircle
 10
110.800000000
 20
215.700000000
 30
0.000000000
 40
1.350000000
100
AcDbArc
 50
158.261539208
 51
180.000000000
  0
ARC
  5
A50
330
A02
100
AcDbEntity
  8
flat_L4_Pocket
100
AcDbCircle
 10
110.800000000
 20
215.700000000
 30
0.000000000
 40
1.350000000
100
AcDbArc
 50
180.000000000
 51
21.738460792
  0
LINE
  5
A51
330
A02
100
AcDbEntity
  8
flat_L4_Pocket
100
AcDbLine
 10
4.000000000
 20
206.200000000
 30
0.000000000
 11
80.400000000
 21
206.200000000
 31
0.000000000
  0
LINE
  5
A52
330
A02
100
AcDbEntity
  8
flat_L4_Pocket
100
AcDbLine
 10
119.925000000
 20
216.200000000
 30
0.000000000
 11
112.053993620
 21
216.200000000
 31
0.000000000
  0
LINE
  5
A53
330
A02
100
AcDbEntity
  8
flat_L4_Pocket
100
AcDbLine
 10
80.400000000
 20
206.200000000
 30
0.000000000
 11
80.400000000
 21
216.200000000
 31
0.000000000
  0
LINE
  5
A54
330
A02
100
AcDbEntity
  8
flat_L4_Pocket
100
AcDbLine
 10
119.925000000
 20
216.200000000
 30
0.000000000
 11
119.925000000
 21
218.200000000
 31
0.000000000
  0
LINE
  5
A55
330
A02
100
AcDbEntity
  8
flat_L4_Pocket
100
AcDbLine
 10
80.400000000
 20
216.200000000
 30
0.000000000
 11
41.253993620
 21
216.200000000
 31
0.000000000
  0
LINE
  5
A56
330
A02
100
AcDbEntity
  8
flat_L4_Pocket
100
AcDbLine
 10
134.925000000
 20
218.200000000
 30
0.000000000
 11
119.925000000
 21
218.200000000
 31
0.000000000
  0
ARC
  5
A57
330
A02
100
AcDbEntity
  8
flat_L4_Pocket
100
AcDbCircle
 10
40.000000000
 20
215.700000000
 30
0.000000000
 40
1.350000000
100
AcDbArc
 50
180.000000000
 51
21.738460792
  0
LINE
  5
A58
330
A02
100
AcDbEntity
  8
flat_L4_Pocket
100
AcDbLine
 10
134.925000000
 20
218.200000000
 30
0.000000000
 11
134.925000000
 21
386.400000000
 31
0.000000000
  0
ARC
  5
A59
330
A02
100
AcDbEntity
  8
flat_L4_Pocket
100
AcDbCircle
 10
40.000000000
 20
215.700000000
 30
0.000000000
 40
1.350000000
100
AcDbArc
 50
158.261539208
 51
180.000000000
  0
LINE
  5
A5A
330
A02
100
AcDbEntity
  8
flat_L4_Pocket
100
AcDbLine
 10
134.925000000
 20
386.400000000
 30
0.000000000
 11
15.875000000
 21
386.400000000
 31
0.000000000
  0
LINE
  5
A5B
330
A02
100
AcDbEntity
  8
flat_L4_Pocket
100
AcDbLine
 10
38.746006380
 20
216.200000000
 30
0.000000000
 11
30.875000000
 21
216.200000000
 31
0.000000000
  0
LINE
  5
A5C
330
A02
100
AcDbEntity
  8
flat_L4_Pocket
100
AcDbLine
 10
15.875000000
 20
218.200000000
 30
0.000000000
 11
15.875000000
 21
386.400000000
 31
0.000000000
  0
LINE
  5
A5D
330
A02
100
AcDbEntity
  8
flat_L4_Pocket
100
AcDbLine
 10
30.875000000
 20
216.200000000
 30
0.000000000
 11
30.875000000
 21
218.200000000
 31
0.000000000
  0
LINE
  5
A5E
330
A02
100
AcDbEntity
  8
flat_L4_Pocket
100
AcDbLine
 10
30.875000000
 20
218.200000000
 30
0.000000000
 11
15.875000000
 21
218.200000000
 31
0.000000000
  0
LINE
  5
A5F
330
A02
100
AcDbEntity
  8
flat_L4_Pocket
100
AcDbLine
 10
13.000000000
 20
356.200000000
 30
0.000000000
 11
13.000000000
 21
378.200000000
 31
0.000000000
  0
ARC
  5
A60
330
A02
100
AcDbEntity
  8
flat_L4_Pocket
100
AcDbCircle
 10
8.000000000
 20
356.200000000
 30
0.000000000
 40
5.000000000
100
AcDbArc
 50
180.000000000
 51
0.000000000
  0
LINE
  5
A61
330
A02
100
AcDbEntity
  8
flat_L4_Pocket
100
AcDbLine
 10
13.000000000
 20
378.200000000
 30
0.000000000
 11
3.000000000
 21
378.200000000
 31
0.000000000
  0
LINE
  5
A62
330
A02
100
AcDbEntity
  8
flat_L4_Pocket
100
AcDbLine
 10
3.000000000
 20
356.200000000
 30
0.000000000
 11
3.000000000
 21
378.200000000
 31
0.000000000
  0
LINE
  5
A63
330
A02
100
AcDbEntity
  8
flat_L4_Pocket
100
AcDbLine
 10
147.800000000
 20
356.200000000
 30
0.000000000
 11
147.800000000
 21
378.200000000
 31
0.000000000
  0
LINE
  5
A64
330
A02
100
AcDbEntity
  8
flat_L4_Pocket
100
AcDbLine
 10
147.800000000
 20
378.200000000
 30
0.000000000
 11
137.800000000
 21
378.200000000
 31
0.000000000
  0
LINE
  5
A65
330
A02
100
AcDbEntity
  8
flat_L4_Pocket
100
AcDbLine
 10
137.800000000
 20
356.200000000
 30
0.000000000
 11
137.800000000
 21
378.200000000
 31
0.000000000
  0
ARC
  5
A66
330
A02
100
AcDbEntity
  8
flat_L4_Pocket
100
AcDbCircle
 10
142.800000000
 20
356.200000000
 30
0.000000000
 40
5.000000000
100
AcDbArc
 50
180.000000000
 51
0.000000000
  0
CIRCLE
  5
A67
330
A02
100
AcDbEntity
  8
flat_L4_Pocket
100
AcDbCircle
 10
40.000000000
 20
388.900000000
 30
0.000000000
 40
1.350000000
  0
CIRCLE
  5
A68
330
A02
100
AcDbEntity
  8
flat_L4_Pocket
100
AcDbCircle
 10
75.400000000
 20
388.900000000
 30
0.000000000
 40
1.350000000
  0
CIRCLE
  5
A69
330
A02
100
AcDbEntity
  8
flat_L4_Pocket
100
AcDbCircle
 10
110.800000000
 20
388.900000000
 30
0.000000000
 40
1.350000000
  0
LINE
  5
A6A
330
A02
100
AcDbEntity
  8
flat_L5_Back
100
AcDbLine
 10
164.800000000
 20
210.200000000
 30
0.000000000
 11
164.800000000
 21
394.400000000
 31
0.000000000
  0
ARC
  5
A6B
330
A02
100
AcDbEntity
  8
flat_L5_Back
100
AcDbCircle
 10
168.800000000
 20
210.200000000
 30
0.000000000
 40
4.000000000
100
AcDbArc
 50
180.000000000
 51
-90.000000000
  0
ARC
  5
A6C
330
A02
100
AcDbEntity
  8
flat_L5_Back
100
AcDbCircle
 10
168.800000000
 20
394.400000000
 30
0.000000000
 40
4.000000000
100
AcDbArc
 50
90.000000000
 51
180.000000000
  0
LINE
  5
A6D
330
A02
100
AcDbEntity
  8
flat_L5_Back
100
AcDbLine
 10
315.600000000
 20
210.200000000
 30
0.000000000
 11
315.600000000
 21
394.400000000
 31
0.000000000
  0
ARC
  5
A6E
330
A02
100
AcDbEntity
  8
flat_L5_Back
100
AcDbCircle
 10
311.600000000
 20
210.200000000
 30
0.000000000
 40
4.000000000
100
AcDbArc
 50
-90.000000000
 51
0.000000000
  0
ARC
  5
A6F
330
A02
100
AcDbEntity
  8
flat_L5_Back
100
AcDbCircle
 10
311.600000000
 20
394.400000000
 30
0.000000000
 40
4.000000000
100
AcDbArc
 50
0.000000000
 51
90.000000000
  0
LINE
  5
A70
330
A02
100
AcDbEntity
  8
flat_L5_Back
100
AcDbLine
 10
259.200000000
 20
206.200000000
 30
0.000000000
 11
311.600000000
 21
206.200000000
 31
0.000000000
  0
LINE
  5
A71
330
A02
100
AcDbEntity
  8
flat_L5_Back
100
AcDbLine
 10
168.800000000
 20
398.400000000
 30
0.000000000
 11
311.600000000
 21
398.400000000
 31
0.000000000
  0
LINE
  5
A72
330
A02
100
AcDbEntity
  8
flat_L5_Back
100
AcDbLine
 10
259.200000000
 20
206.200000000
 30
0.000000000
 11
259.200000000
 21
213.200000000
 31
0.000000000
  0
LINE
  5
A73
330
A02
100
AcDbEntity
  8
flat_L5_Back
100
AcDbLine
 10
302.725000000
 20
213.200000000
 30
0.000000000
 11
259.200000000
 21
213.200000000
 31
0.000000000
  0
LINE
  5
A74
330
A02
100
AcDbEntity
  8
flat_L5_Back
100
AcDbLine
 10
302.725000000
 20
213.200000000
 30
0.000000000
 11
302.725000000
 21
355.088975698
 31
0.000000000
  0
ARC
  5
A75
330
A02
100
AcDbEntity
  8
flat_L5_Back
100
AcDbCircle
 10
307.600000000
 20
356.200000000
 30
0.000000000
 40
5.000000000
100
AcDbArc
 50
-167.161431859
 51
0.000000000
  0
LINE
  5
A76
330
A02
100
AcDbEntity
  8
flat_L5_Back
100
AcDbLine
 10
168.800000000
 20
206.200000000
 30
0.000000000
 11
245.200000000
 21
206.200000000
 31
0.000000000
  0
LINE
  5
A77
330
A02
100
AcDbEntity
  8
flat_L5_Back
100
AcDbLine
 10
312.600000000
 20
356.200000000
 30
0.000000000
 11
312.600000000
 21
378.200000000
 31
0.000000000
  0
LINE
  5
A78
330
A02
100
AcDbEntity
  8
flat_L5_Back
100
AcDbLine
 10
245.200000000
 20
206.200000000
 30
0.000000000
 11
245.200000000
 21
213.200000000
 31
0.000000000
  0
LINE
  5
A79
330
A02
100
AcDbEntity
  8
flat_L5_Back
100
AcDbLine
 10
312.600000000
 20
378.200000000
 30
0.000000000
 11
310.100000000
 21
378.200000000
 31
0.000000000
  0
LINE
  5
A7A
330
A02
100
AcDbEntity
  8
flat_L5_Back
100
AcDbLine
 10
245.200000000
 20
213.200000000
 30
0.000000000
 11
177.675000000
 21
213.200000000
 31
0.000000000
  0
LINE
  5
A7B
330
A02
100
AcDbEntity
  8
flat_L5_Back
100
AcDbLine
 10
310.100000000
 20
378.200000000
 30
0.000000000
 11
305.100000000
 21
378.200000000
 31
0.000000000
  0
LINE
  5
A7C
330
A02
100
AcDbEntity
  8
flat_L5_Back
100
AcDbLine
 10
177.675000000
 20
213.200000000
 30
0.000000000
 11
177.675000000
 21
355.088975698
 31
0.000000000
  0
LINE
  5
A7D
330
A02
100
AcDbEntity
  8
flat_L5_Back
100
AcDbLine
 10
305.100000000
 20
378.200000000
 30
0.000000000
 11
302.725000000
 21
378.200000000
 31
0.000000000
  0
ARC
  5
A7E
330
A02
100
AcDbEntity
  8
flat_L5_Back
100
AcDbCircle
 10
172.800000000
 20
356.200000000
 30
0.000000000
 40
5.000000000
100
AcDbArc
 50
180.000000000
 51
-12.838568141
  0
LINE
  5
A7F
330
A02
100
AcDbEntity
  8
flat_L5_Back
100
AcDbLine
 10
302.725000000
 20
378.200000000
 30
0.000000000
 11
302.725000000
 21
391.400000000
 31
0.000000000
  0
LINE
  5
A80
330
A02
100
AcDbEntity
  8
flat_L5_Back
100
AcDbLine
 10
167.800000000
 20
356.200000000
 30
0.000000000
 11
167.800000000
 21
378.200000000
 31
0.000000000
  0
LINE
  5
A81
330
A02
100
AcDbEntity
  8
flat_L5_Back
100
AcDbLine
 10
302.725000000
 20
391.400000000
 30
0.000000000
 11
177.675000000
 21
391.400000000
 31
0.000000000
  0
LINE
  5
A82
330
A02
100
AcDbEntity
  8
flat_L5_Back
100
AcDbLine
 10
170.300000000
 20
378.200000000
 30
0.000000000
 11
167.800000000
 21
378.200000000
 31
0.000000000
  0
LINE
  5
A83
330
A02
100
AcDbEntity
  8
flat_L5_Back
100
AcDbLine
 10
177.675000000
 20
378.200000000
 30
0.000000000
 11
177.675000000
 21
391.400000000
 31
0.000000000
  0
LINE
  5
A84
330
A02
100
AcDbEntity
  8
flat_L5_Back
100
AcDbLine
 10
175.300000000
 20
378.200000000
 30
0.000000000
 11
170.300000000
 21
378.200000000
 31
0.000000000
  0
LINE
  5
A85
330
A02
100
AcDbEntity
  8
flat_L5_Back
100
AcDbLine
 10
177.675000000
 20
378.200000000
 30
0.000000000
 11
175.300000000
 21
378.200000000
 31
0.000000000
  0
LINE
  5
A86
330
A02
100
AcDbEntity
  8
flat_BackPanel
100
AcDbLine
 10
342.675000000
 20
213.400000000
 30
0.000000000
 11
342.675000000
 21
391.200000000
 31
0.000000000
  0
LINE
  5
A87
330
A02
100
AcDbEntity
  8
flat_BackPanel
100
AcDbLine
 10
342.675000000
 20
213.400000000
 30
0.000000000
 11
467.325000000
 21
213.400000000
 31
0.000000000
  0
LINE
  5
A88
330
A02
100
AcDbEntity
  8
flat_BackPanel
100
AcDbLine
 10
342.675000000
 20
391.200000000
 30
0.000000000
 11
467.325000000
 21
391.200000000
 31
0.000000000
  0
LINE
  5
A89
330
A02
100
AcDbEntity
  8
flat_BackPanel
100
AcDbLine
 10
467.325000000
 20
213.400000000
 30
0.000000000
 11
467.325000000
 21
391.200000000
 31
0.000000000
  0
CIRCLE
  5
A8A
330
A02
100
AcDbEntity
  8
flat_BackPanel
100
AcDbCircle
 10
369.600000000
 20
215.700000000
 30
0.000000000
 40
1.700000000
  0
CIRCLE
  5
A8B
330
A02
100
AcDbEntity
  8
flat_BackPanel
100
AcDbCircle
 10
440.400000000
 20
215.700000000
 30
0.000000000
 40
1.700000000
  0
CIRCLE
  5
A8C
330
A02
100
AcDbEntity
  8
flat_BackPanel
100
AcDbCircle
 10
369.600000000
 20
388.900000000
 30
0.000000000
 40
1.700000000
  0
CIRCLE
  5
A8D
330
A02
100
AcDbEntity
  8
flat_BackPanel
100
AcDbCircle
 10
405.000000000
 20
388.900000000
 30
0.000000000
 40
1.700000000
  0
CIRCLE
  5
A8E
330
A02
100
AcDbEntity
  8
flat_BackPanel
100
AcDbCircle
 10
440.400000000
 20
388.900000000
 30
0.000000000
 40
1.700000000
  0
ENDSEC
  0
SECTION
  2
OBJECTS
  0
DICTIONARY
  5
F000
330
0
100
AcDbDictionary
  3
ACAD_GROUP
350
F001
  0
DICTIONARY
  5
F001
330
F000
100
AcDbDictionary
  0
ENDSEC
  0
EOF